<svg xmlns="http://www.w3.org/2000/svg" viewBox="0 0 130 45.12">
  <defs>
    <style>.cls-1{fill:#183235;}.cls-2{fill:#f18670;}</style>
  </defs>
  <g id="Layer_2" data-name="Layer 2">
    <g id="Logo">
      <path class="cls-1" d="M59.22,16.68A7,7,0,0,0,54.57,15a7.21,7.21,0,0,0-7.37,7.55,7.21,7.21,0,0,0,7.37,7.55,6.86,6.86,0,0,0,5-2l.56,1.74h2.13V9.39h-3ZM54.74,27.24a4.38,4.38,0,0,1-4.47-4.68,4.38,4.38,0,0,1,4.47-4.68,4.49,4.49,0,0,1,4.48,4.68A4.49,4.49,0,0,1,54.74,27.24Z"></path>
      <path class="cls-1" d="M7.55,17.88a5.25,5.25,0,0,1,3.6,1.43l1.84-2A7.42,7.42,0,0,0,7.55,15,7.29,7.29,0,0,0,0,22.56a7.29,7.29,0,0,0,7.55,7.55A7.42,7.42,0,0,0,13,27.8l-1.84-2a5.29,5.29,0,0,1-3.6,1.43,4.49,4.49,0,0,1-4.48-4.68A4.49,4.49,0,0,1,7.55,17.88Z"></path>
      <path class="cls-1" d="M75,23.55c0,2.34-1.29,3.75-3.42,3.75s-3.43-1.41-3.43-3.75V15.24h-3v8.43a6.44,6.44,0,1,0,12.88,0V15.24H75Z"></path>
      <path class="cls-1" d="M39.15,15a6.71,6.71,0,0,0-4.86,2l-.55-1.73H31.6V29.87h3V21.8a3.69,3.69,0,0,1,3.81-3.92c2.22,0,3.51,1.4,3.51,3.83v8.16h2.92V21.48C44.85,17.67,42.51,15,39.15,15Z"></path>
      <path class="cls-1" d="M112.09,15a7.29,7.29,0,0,0-7.55,7.55,7.55,7.55,0,1,0,15.1,0A7.29,7.29,0,0,0,112.09,15Zm0,12.23a4.42,4.42,0,0,1-4.47-4.68,4.48,4.48,0,1,1,8.95,0A4.42,4.42,0,0,1,112.09,27.24Z"></path>
      <path class="cls-1" d="M129.53,15A6.63,6.63,0,0,0,124.66,17l-.54-1.71H122V29.87h3V22c0-2.57,1.61-4.06,4.39-4.06H130V15A3.13,3.13,0,0,0,129.53,15Z"></path>
      <path class="cls-1" d="M87.92,17.88a5.21,5.21,0,0,1,3.6,1.43l1.85-2A7.44,7.44,0,0,0,87.92,15a7.28,7.28,0,0,0-7.54,7.55,7.28,7.28,0,0,0,7.54,7.55,7.44,7.44,0,0,0,5.45-2.31l-1.85-2a5.26,5.26,0,0,1-3.6,1.43,4.49,4.49,0,0,1-4.47-4.68A4.49,4.49,0,0,1,87.92,17.88Z"></path>
      <path class="cls-1" d="M98.44,18h4.34V15.23H98.44V11.18h-3v15.6A3,3,0,0,0,98.74,30c1.34,0,3.07-.06,4.19-.15V27.1H98.44Z"></path>
      <ellipse class="cls-2" cx="21.53" cy="0.88" rx="5.88" ry="0.88"></ellipse>
      <ellipse class="cls-2" cx="21.53" cy="7.87" rx="6.64" ry="3.34"></ellipse>
      <ellipse class="cls-2" cx="21.53" cy="37.25" rx="6.64" ry="3.34"></ellipse>
      <ellipse class="cls-2" cx="21.53" cy="44.24" rx="5.88" ry="0.88"></ellipse>
      <circle class="cls-2" cx="21.53" cy="22.56" r="7.55"></circle>
    </g>
  </g>
</svg>