<?xml version="1.0" encoding="UTF-8"?>
<!DOCTYPE svg PUBLIC "-//W3C//DTD SVG 1.1//EN" "http://www.w3.org/Graphics/SVG/1.1/DTD/svg11.dtd">
<!-- Creator: CorelDRAW -->
<svg xmlns="http://www.w3.org/2000/svg" xml:space="preserve" version="1.1" style="shape-rendering:geometricPrecision; text-rendering:geometricPrecision; image-rendering:optimizeQuality; fill-rule:evenodd; clip-rule:evenodd"
viewBox="0 0 21499.1 9550.56"
 xmlns:xlink="http://www.w3.org/1999/xlink"
 xmlns:xodm="http://www.corel.com/coreldraw/odm/2003">
 <defs>
  <style type="text/css">
   <![CDATA[
    .fil0 {fill:white}
    .fil1 {fill:#183235;fill-rule:nonzero}
    .fil2 {fill:#F18670;fill-rule:nonzero}
   ]]>
  </style>
 </defs>
 <g id="Camada_x0020_1">
  <metadata id="CorelCorpID_0Corel-Layer"/>
  <g id="_1974811441280">
   <rect class="fil0" x="-0.03" y="-0.02" width="21499.09" height="9550.54"/>
   <g>
    <g id="Layer_2" data-name="Layer 2">
     <g id="Logo">
      <path class="fil1" d="M9921.81 3932.92c-181.56,-155.24 -412.83,-240.85 -651.84,-240.85 -4.66,0 -9.8,0.11 -14.35,0.11 -7.8,-0.11 -16.08,-0.22 -24.04,-0.22 -570.4,0 -1032.94,462.54 -1032.94,1032.94 0,16.24 0.38,32.81 1.14,48.95 -0.76,16.14 -1.14,32.71 -1.14,48.95 0,570.4 462.54,1032.94 1032.94,1032.94 7.96,0 16.24,-0.11 24.1,-0.27 7.36,0.16 15.05,0.27 22.47,0.27 260.13,0 509.7,-103.21 693.86,-286.77l80.25 249.3 305.07 0.05 0 -2929.87 -429.78 0 -5.74 1044.47zm-641.82 1512.91c-4.6,0.05 -9.58,0.11 -14.35,0.11 -346.5,0 -627.53,-281.03 -627.53,-627.53 0,-14.35 0.54,-28.86 1.46,-43.1 -0.92,-14.3 -1.46,-28.81 -1.46,-43.16 0,-346.5 281.03,-627.53 627.53,-627.53 4.77,0 9.75,0.05 14.4,0.16 354.89,0.49 642.42,288.4 642.42,643.29 0,9.04 -0.22,18.3 -0.54,27.24 0.32,8.88 0.54,18.14 0.54,27.18 0,354.89 -287.53,642.8 -642.42,643.29l-0.05 0.05z"/>
      <path class="fil1" d="M2519.15 4104.84c191.74,-0.05 376.33,73.32 515.82,204.84l263.6 -286.55c-200.67,-211.18 -479.43,-330.96 -770.8,-330.96 -2.71,0 -5.85,0 -8.56,0 -12.51,-0.38 -25.4,-0.65 -38.01,-0.65 -576.74,0 -1044.42,467.68 -1044.42,1044.42 0,13 0.38,26.53 0.76,39.37 -0.43,12.4 -0.7,25.29 -0.7,37.9 0,576.74 467.68,1044.42 1044.42,1044.42 12.62,0 25.5,-0.27 38.01,-0.65 3.14,0 6.66,0 9.91,0 291.37,0 570.13,-119.78 770.75,-330.96l-263.6 -286.55c-139.7,130.99 -324.03,204.3 -515.66,204.84 -354.94,-0.49 -642.47,-288.4 -642.47,-643.29 0,-9.04 0.22,-18.3 0.54,-27.18 -0.27,-8.5 -0.49,-17.22 -0.49,-25.77 0,-354.35 286.55,-642.04 640.9,-643.29l0 0.05z"/>
      <path class="fil1" d="M12182.51 4917.12c0,335.23 -184.81,537.26 -489.99,537.26 -305.18,0 -491.4,-202.03 -491.4,-537.26l0 -1190.51 -429.78 0 0 1207.73c0,509.43 413.15,922.58 922.64,922.58 509.48,0 922.64,-413.15 922.64,-922.64l0 -1207.68 -434.11 0 0 1190.51z"/>
      <path class="fil1" d="M7046.41 3692.23c-3.63,0 -7.74,-0.11 -11.48,-0.11 -257.37,0 -504.23,103.26 -684.82,286.61l-78.79 -247.84 -306.59 0 0 2091.71 429.83 0 0 -1156.18c-0.65,-10.99 -1.03,-22.2 -1.03,-33.25 0,-291.91 236.74,-528.65 528.65,-528.65 6.06,0 12.24,0.11 18.25,0.32 318.07,0 502.88,200.57 502.88,548.74l0 1169.07 418.3 -0.05 0 -1201.99c1.41,-545.87 -333.83,-928.38 -815.21,-928.38z"/>
      <path class="fil1" d="M17496.32 3692.23c-12.4,-0.43 -25.29,-0.7 -37.9,-0.7 -576.74,0 -1044.42,467.68 -1044.42,1044.42 0,12.62 0.27,25.5 0.65,38.01 0,597.2 484.36,1081.56 1081.67,1081.56 597.31,0 1081.67,-484.36 1081.67,-1081.62 0.43,-12.45 0.7,-25.34 0.7,-37.96 0,-576.74 -467.68,-1044.42 -1044.42,-1044.42 -12.62,0 -25.5,0.27 -38.01,0.65l0.05 0.05zm0 1752.14c-2.6,-0.05 -5.52,0 -8.23,0 -349.69,0 -633.27,-283.58 -633.27,-633.27 0,-12.35 0.38,-25.07 1.08,-37.31 -0.43,-9.91 -0.65,-20.09 -0.65,-30.21 0,-354.4 287.42,-641.82 641.82,-641.82 354.4,0 641.82,287.42 641.82,641.82 0,10.13 -0.22,20.31 -0.7,30.32 0.81,12.78 1.19,25.77 1.19,38.66 0,349.69 -283.58,633.27 -633.27,633.27 -3.25,0 -6.66,-0.05 -9.8,-0.05l0 -1.41z"/>
      <path class="fil1" d="M19994.96 3692.23c-5.74,-0.11 -11.91,-0.22 -17.71,-0.22 -256.07,0 -501.31,103.42 -680,286.66l-77.38 -244.97 -303.72 0.05 0 2088.84 429.78 0 0 -1127.54c0,-368.21 230.67,-581.66 628.94,-581.66l87.4 0 0 -421.17c-11.15,-0.81 -22.47,-1.25 -33.68,-1.25 -11.21,0 -22.53,0.43 -33.68,1.25l0.05 0z"/>
      <path class="fil1" d="M14033.58 4104.84c0.6,-0.05 1.41,-0.05 2.06,-0.05 191.09,0 375.09,73.37 513.71,204.84l265.06 -286.55c-201.11,-211.18 -480.35,-330.9 -772.1,-330.9 -2.87,0 -5.85,0 -8.72,0 -12.56,-0.43 -25.4,-0.7 -38.01,-0.7 -575.92,0 -1043.01,467.09 -1043.01,1043.01 0,13.1 0.38,26.37 0.76,39.37 -0.38,13 -0.76,26.26 -0.76,39.37 0,575.92 467.09,1043.01 1043.01,1043.01 12.62,0 25.45,-0.27 37.96,-0.65 2.92,-0.05 5.9,-0.05 8.77,-0.05 291.75,0 571,-119.72 772.05,-330.9l-265.06 -286.55c-139.49,131.26 -324.13,204.68 -515.77,204.84 -354.29,-1.19 -640.96,-288.94 -640.96,-643.29 0,-9.04 0.22,-18.3 0.54,-27.18 -0.22,-8.01 -0.43,-16.3 -0.43,-24.37 0,-354.29 286.55,-641.93 640.85,-643.29l0.05 0.05z"/>
      <path class="fil1" d="M15540.75 4122.01l621.79 0 0 -396.85 -621.79 0 0 -580.26 -429.83 0 0 2234.98c-0.87,11.21 -1.35,22.53 -1.35,33.79 0,237.33 192.5,429.83 429.83,429.83 14.78,0 29.62,-0.81 44.29,-2.33 191.96,0 439.85,-8.61 600.29,-21.5l0 -393.93 -643.23 0 0 -1303.74z"/>
      <ellipse class="fil2" cx="4522.05" cy="1669.24" rx="842.39" ry="126.06"/>
      <ellipse class="fil2" cx="4522.05" cy="2670.71" rx="951.28" ry="478.51"/>
      <ellipse class="fil2" cx="4522.05" cy="6879.89" rx="951.28" ry="478.51"/>
      <ellipse class="fil2" cx="4522.05" cy="7881.36" rx="842.39" ry="126.06"/>
      <circle class="fil2" cx="4522.05" cy="4775.3" r="1081.67"/>
     </g>
    </g>
   </g>
  </g>
 </g>
</svg>
