<?xml version="1.0" encoding="UTF-8"?>
<!DOCTYPE svg PUBLIC "-//W3C//DTD SVG 1.1//EN" "http://www.w3.org/Graphics/SVG/1.1/DTD/svg11.dtd">
<!-- Creator: CorelDRAW -->
<svg xmlns="http://www.w3.org/2000/svg" xml:space="preserve" width="459.616mm" height="132.056mm" version="1.1" shape-rendering="geometricPrecision" text-rendering="geometricPrecision" image-rendering="optimizeQuality" fill-rule="evenodd" clip-rule="evenodd"
viewBox="0 0 54541 15671"
 xmlns:xlink="http://www.w3.org/1999/xlink"
 xmlns:xodm="http://www.corel.com/coreldraw/odm/2003">
 <g id="Camada_x0020_1">
  <metadata id="CorelCorpID_0Corel-Layer"/>
  <g id="_1340489730224">
   <g>
    <path fill="white" d="M30353 3914c2104,0 3810,1706 3810,3810 0,2104 -1706,3810 -3810,3810 -2104,0 -3810,-1706 -3810,-3810 0,-2104 1706,-3810 3810,-3810zm0 1591c1226,0 2219,994 2219,2219 0,1226 -994,2219 -2219,2219 -1226,0 -2219,-994 -2219,-2219 0,-1226 994,-2219 2219,-2219z"/>
    <path fill="white" d="M24568 3914c384,0 881,88 1178,208l0 1544c-300,-133 -778,-162 -1178,-162 -1226,0 -2219,994 -2219,2219 0,1226 994,2219 2219,2219 398,0 836,-42 1178,-180l0 1561c-350,106 -798,209 -1178,209 -2104,0 -3810,-1706 -3810,-3810 0,-2104 1706,-3810 3810,-3810z"/>
    <path fill="white" d="M51025 3914c2187,0 3730,1791 3491,4217l-1474 0 -384 0 -3771 0c187,1078 1158,1893 2078,1893 919,0 2031,-428 2388,-1162l1181 904c-716,1063 -2011,1768 -3508,1768 -1919,0 -3810,-1706 -3810,-3810 0,-2104 1622,-3810 3810,-3810zm-2047 2968l3973 0c-297,-893 -1074,-1530 -1986,-1530 -912,0 -1689,637 -1986,1530z"/>
    <path fill="white" d="M40264 11533l1593 0 0 -4788 -4 -150c-78,-1456 -1283,-2613 -2759,-2613 -862,0 -1631,395 -2138,1013l0 -786 -1593 0 0 7324 1593 0 0 -3038 0 0 0 -1294c0,-913 740,-1654 1654,-1654 913,0 1653,740 1654,1653l0 2049 0 2285z"/>
    <polygon fill="white" points="43896,11533 45571,11533 45571,5757 46490,5757 46490,4216 45571,4216 45571,1701 43896,2264 43896,4216 43004,4216 43004,5757 43896,5757 "/>
   </g>
   <g>
    <path fill="white" d="M7823 25c-4320,0 -7823,3502 -7823,7823 0,4320 3502,7823 7823,7823l0 -4462c-1856,0 -3361,-1505 -3361,-3361 0,-1856 1505,-3361 3361,-3361l0 -4462z"/>
    <path fill="white" d="M15658 15671c165,0 329,-6 492,-16l0 -15639c-163,-10 -326,-16 -492,-16 -4327,0 -7835,3508 -7835,7835 0,4327 3508,7835 7835,7835z"/>
   </g>
  </g>
 </g>
</svg>
