<?xml version="1.0" encoding="UTF-8"?>
<!DOCTYPE svg PUBLIC "-//W3C//DTD SVG 1.1//EN" "http://www.w3.org/Graphics/SVG/1.1/DTD/svg11.dtd">
<!-- Creator: CorelDRAW -->
<svg xmlns="http://www.w3.org/2000/svg" xml:space="preserve" width="186.844mm" height="46.0334mm" version="1.1" shape-rendering="geometricPrecision" text-rendering="geometricPrecision" image-rendering="optimizeQuality" fill-rule="evenodd" clip-rule="evenodd"
viewBox="0 0 18152 4472"
 xmlns:xlink="http://www.w3.org/1999/xlink"
 xmlns:xodm="http://www.corel.com/coreldraw/odm/2003">
 <g id="Camada_x0020_1">
  <metadata id="CorelCorpID_0Corel-Layer"/>
  <g id="_3009921169456">
   <g>
    <path fill="black" fill-rule="nonzero" d="M5318 2861c1,12 1,24 1,35 0,148 -54,291 -152,402 -105,102 -247,159 -393,159 -12,0 -25,0 -37,-1 -2,0 -5,0 -7,0 -108,0 -217,-16 -320,-47l15 -324c26,13 53,22 82,27 27,4 54,6 81,6 1,0 2,0 4,0 8,1 15,1 23,1 76,0 148,-34 196,-94 44,-63 67,-138 67,-215 0,-5 0,-10 0,-14l0 -1360 440 0 1 1426z"/>
    <polygon fill="black" fill-rule="nonzero" points="5925,1742 5925,2286 6720,2286 6720,2587 5925,2587 5925,3424 5488,3424 5488,1435 6759,1435 6759,1739 "/>
    <path fill="black" fill-rule="nonzero" d="M8336 2057c0,4 0,9 0,14 0,90 -18,180 -52,263 -32,76 -81,144 -143,198 -63,54 -136,94 -215,119 -84,27 -173,40 -261,40 -2,0 -4,0 -6,0l-393 0 0 732 -430 0 0 -1988 836 0c2,0 5,0 8,0 87,0 174,14 257,40 79,25 152,65 215,119 62,53 111,120 143,195 29,75 43,154 43,234 0,11 0,22 -1,33l0 0zm-440 0c0,-3 0,-7 0,-10 0,-48 -11,-96 -32,-140 -20,-40 -49,-75 -85,-101 -37,-28 -80,-47 -126,-58 -49,-12 -99,-18 -150,-18 -1,0 -2,0 -3,0l-242 0 0 661 156 0c59,0 118,-4 177,-11 53,-6 106,-21 154,-45 45,-23 82,-57 109,-100 28,-49 43,-105 43,-162 0,-4 0,-9 0,-13l0 -3z"/>
    <path fill="black" fill-rule="nonzero" d="M9899 2864c0,6 0,13 0,19 0,94 -25,187 -72,268 -44,72 -106,131 -180,171 -79,42 -165,70 -253,82 -94,14 -190,21 -285,21 0,0 -1,0 -2,0l-723 0 0 -1990 811 0c1,0 2,0 2,0 80,0 160,8 238,24 74,14 145,41 210,79 62,37 113,89 149,151 37,68 57,144 57,222 0,6 0,11 0,17 0,7 0,14 0,21 0,105 -37,206 -105,285 -77,81 -177,137 -287,158 117,18 227,71 314,151 80,78 126,186 126,298 0,8 0,17 -1,25l0 0zm-488 -879c0,-3 0,-5 0,-8 0,-43 -11,-85 -32,-123 -20,-35 -48,-64 -82,-85 -35,-22 -74,-37 -115,-44 -43,-9 -87,-14 -131,-14l-247 0 0 565 212 0c48,0 96,-5 143,-14 44,-8 86,-24 125,-46 37,-22 68,-53 90,-90 24,-42 37,-90 37,-139 0,-1 0,-2 0,-3zm42 861c0,-5 0,-10 0,-14 0,-52 -14,-103 -41,-147 -26,-40 -63,-73 -105,-95 -46,-23 -96,-39 -147,-46 -53,-8 -108,-12 -162,-12l-191 0 0 618 209 0c51,0 103,-5 154,-14 50,-8 99,-24 143,-47 41,-22 77,-54 103,-93 25,-41 38,-88 38,-136 0,-5 0,-10 0,-15l0 1z"/>
   </g>
   <g>
    <path fill="#231F20" fill-rule="nonzero" d="M10743 1844l0 207c0,35 0,65 0,90 0,25 0,47 0,66 -1,17 -4,35 -8,52 -4,16 -8,31 -14,46 -11,24 -25,45 -44,64 -25,25 -53,48 -82,67l-18 12 -16 9 -6 0c-4,0 -6,0 -6,-5 -1,-1 -1,-2 -1,-3 0,-1 0,-2 1,-3l9 -6c6,-3 11,-7 16,-11l14 -13c13,-14 25,-28 36,-44 12,-17 20,-37 26,-57 8,-29 13,-58 16,-88 3,-35 5,-81 5,-136l0 -379c0,-13 0,-23 0,-31 0,-8 0,-15 0,-22 0,-12 -3,-23 -9,-34 -7,-9 -17,-15 -29,-16l-14 0 -15 0c-5,0 -7,-2 -7,-5 0,-4 4,-7 14,-7l181 0c9,0 14,0 14,7 0,7 0,5 -7,5l-9 0 -15 0c-10,1 -19,6 -24,15 -5,10 -8,22 -8,34 0,7 0,14 0,22 0,8 0,18 0,31l0 133 0 0z"/>
    <path fill="#231F20" fill-rule="nonzero" d="M10939 1970l0 -258c0,-13 0,-23 0,-31 0,-8 0,-15 0,-22 0,-12 -3,-23 -9,-34 -7,-9 -17,-15 -29,-16l-14 0 -15 0c-4,0 -7,0 -7,-5 0,-5 4,-7 14,-7l184 0c9,0 14,0 14,7 0,7 0,5 -7,5l-12 0 -12 0c-10,1 -19,6 -24,14 -5,11 -8,23 -8,34 0,7 0,14 0,22 0,8 0,18 0,31l0 253c0,1 0,2 0,3 0,26 2,52 5,77 3,20 7,40 14,59 5,15 12,29 21,42 7,11 16,22 26,31 17,18 39,31 62,39 21,6 43,9 65,9 1,0 2,0 2,0 52,0 101,-23 136,-62 21,-26 35,-57 40,-90 7,-38 10,-77 10,-115 0,-2 0,-3 0,-5l0 -240c0,-13 0,-23 0,-31 0,-8 0,-15 0,-22 0,-12 -3,-23 -9,-34 -7,-9 -17,-15 -29,-16l-14 0 -15 0c-4,0 -7,0 -7,-5 0,-5 4,-7 14,-7l164 0c9,0 14,0 14,7 0,7 0,5 -7,5l-9 0 -12 0c-10,2 -18,8 -24,16 -5,11 -8,22 -8,34 0,7 0,14 0,22 0,8 0,18 0,31l0 226c0,24 0,47 0,72 -2,24 -6,48 -11,72 -6,22 -14,44 -24,64 -11,20 -25,38 -42,53 -14,13 -30,24 -47,33 -15,8 -30,14 -46,19 -14,5 -29,8 -44,9l-40 0 -32 0c-15,-1 -30,-4 -45,-7 -18,-4 -35,-11 -52,-19 -18,-9 -35,-20 -49,-34 -11,-11 -20,-23 -29,-35 -10,-14 -18,-30 -24,-47 -7,-20 -13,-41 -16,-62 -6,-28 -9,-57 -11,-86l0 0z"/>
    <path fill="#231F20" fill-rule="nonzero" d="M11725 2258c0,0 0,0 0,0 -20,0 -40,-2 -59,-5 -19,-3 -38,-9 -56,-18 -6,0 -10,-6 -11,-10 0,-4 -1,-8 -1,-11 0,-4 0,-8 1,-11 0,-22 0,-41 0,-57 0,-16 0,-27 0,-34 0,-7 0,-14 7,-14 7,0 6,0 6,9 0,9 0,9 0,14 0,3 0,6 0,9 0,3 0,6 0,9 3,15 9,29 17,41 8,11 18,20 29,27 14,9 29,15 45,18 14,3 28,5 42,5 1,0 3,0 4,0 17,0 35,-3 51,-10 14,-6 27,-15 38,-26 10,-11 18,-23 23,-37 5,-13 8,-27 8,-42 0,-1 0,-1 0,-2 0,-13 -2,-26 -5,-39 -4,-13 -9,-25 -16,-36 -9,-13 -19,-25 -31,-36 -12,-12 -28,-26 -47,-42l-39 -32c-20,-16 -39,-34 -56,-52 -13,-14 -24,-30 -34,-47 -8,-14 -14,-28 -17,-44 -3,-14 -5,-29 -5,-44 0,-1 0,-2 0,-3 0,-21 4,-41 12,-60 8,-19 20,-35 36,-49 16,-14 35,-25 56,-32 23,-8 47,-11 71,-11 0,0 0,0 0,0 7,0 15,-1 22,-1 7,0 15,0 22,1 12,1 24,3 36,6l19 0 11 0c6,0 9,0 9,6 0,6 0,11 0,25 0,14 0,37 0,66 0,13 0,20 -6,20 -6,0 -4,0 -5,0 0,-1 0,-3 0,-4 0,-1 0,-3 0,-4 0,-5 0,-12 -4,-22 -1,-7 -4,-14 -7,-21l-8 -11c-5,-6 -12,-12 -19,-16 -10,-6 -21,-11 -32,-14 -15,-4 -30,-6 -46,-6 -1,0 -2,0 -3,0 -1,0 -2,0 -3,0 -27,0 -52,9 -72,27 -20,17 -31,42 -31,69 0,1 0,2 0,3 0,11 2,23 5,34 4,12 9,23 17,32 10,13 20,24 32,35 13,12 30,27 51,43l24 19c22,17 43,36 62,56 15,15 28,32 39,49 9,15 16,31 19,47 3,16 5,32 5,48 0,0 0,1 0,1 0,5 1,10 1,15 0,5 0,10 -1,15 -2,13 -6,26 -11,38 -6,14 -13,27 -22,39 -10,14 -23,26 -37,35 -18,13 -39,23 -61,28 -24,6 -48,9 -73,9 -1,0 -3,0 -4,0l0 0z"/>
    <path fill="#231F20" fill-rule="nonzero" d="M12300 1632l0 364c0,41 0,78 0,110 0,2 0,4 0,5 0,24 1,47 4,71 1,11 3,22 8,32 5,9 15,16 26,16l21 0 18 0c5,0 7,2 7,5 0,4 -4,7 -14,7l-190 0c-9,0 -14,0 -14,-7 0,-7 0,-5 7,-5l13 0 13 0c8,-2 15,-8 18,-16 3,-10 6,-21 7,-32 2,-23 4,-47 4,-71 0,-2 0,-4 0,-5 0,-33 0,-69 0,-110l0 -364 -128 0 -34 0 -24 5c-6,2 -12,4 -17,8 -5,4 -9,8 -12,13l-10 17 -5 10c0,6 -3,9 -9,9 -6,0 -4,0 -4,-8 0,-3 0,-6 0,-8 0,-3 0,-6 0,-8 0,-9 4,-19 6,-29l6 -29c0,-9 0,-14 4,-16l4 -10c0,-4 0,-6 5,-6 4,1 8,2 12,4 8,3 16,5 25,6l39 0 29 0 323 0 36 0 25 0 16 0 9 0 4 0c-2,6 -4,14 -4,24 0,10 0,19 0,29 0,10 0,19 0,27 0,8 0,13 0,15 0,2 0,11 -6,11 -1,0 -2,1 -2,1 -1,0 -2,0 -3,-1 0,-2 0,-4 0,-6 0,-2 0,-4 0,-6l0 -9c-1,-6 -2,-12 -6,-18 -4,-3 -9,-5 -14,-6 -10,-5 -21,-8 -32,-10 -17,-3 -34,-5 -51,-5l-109 -4z"/>
    <path fill="#231F20" fill-rule="nonzero" d="M12745 1844l0 151c0,41 0,78 0,110 0,2 0,4 0,5 0,24 1,47 4,71 1,11 3,22 8,32 5,9 15,16 26,16l21 0 18 0c4,0 7,0 7,5 0,5 -4,7 -14,7l-190 0c-9,0 -14,0 -14,-7 0,-7 0,-5 7,-5l13 0 13 0c9,-1 16,-8 18,-16 3,-10 6,-21 7,-32 2,-24 4,-48 4,-72 0,-1 0,-3 0,-4 0,-33 0,-69 0,-111l0 -287c0,-13 0,-23 0,-31 0,-8 0,-15 0,-22 0,-28 -10,-44 -29,-48l-14 0 -12 0c-4,0 -7,0 -7,-5 0,-5 4,-7 14,-7l171 0c9,0 14,0 14,7 0,7 0,5 -7,5l-9 0 -15 0c-10,1 -19,6 -24,15 -5,10 -8,22 -8,34 0,7 0,14 0,22 0,8 0,18 0,31l0 135 0 0z"/>
    <path fill="#231F20" fill-rule="nonzero" d="M12978 1903c0,81 31,160 87,219 28,30 61,55 98,72 39,17 81,27 123,27 1,0 2,0 3,0 2,0 4,0 7,0 27,0 54,-3 80,-8 24,-5 46,-17 63,-35 10,-11 17,-23 22,-37 4,-11 8,-23 10,-35 0,-9 3,-13 9,-13 0,0 0,0 0,0 2,0 4,1 5,4 0,2 0,3 0,5 0,2 0,3 0,5 0,2 0,7 0,16 0,9 0,19 -4,31 -4,12 -4,23 -6,35 -2,12 -4,22 -7,29 -2,6 -4,11 -7,16 -4,4 -9,7 -15,9 -10,4 -20,7 -31,9l-39 6 -42 0 -42 0 -19 0 -13 11 -14 14 -12 12 -8 8c22,1 44,8 63,19 14,9 23,24 23,41 0,0 0,1 0,1 0,0 0,0 0,0 0,8 -2,16 -6,23 -4,7 -9,14 -14,20 -6,6 -12,11 -19,16 -7,5 -14,8 -22,11 -11,5 -24,9 -36,11 -10,2 -21,3 -31,4 -7,0 -11,0 -11,-7 0,0 0,-1 0,-1 0,-3 2,-6 5,-6l12 0c16,-1 31,-7 44,-16 6,-4 11,-10 14,-16 4,-6 6,-13 6,-20 0,0 0,0 0,0 0,-13 -4,-25 -12,-35 -13,-14 -31,-24 -50,-27 -9,0 -13,-5 -13,-8 0,-3 4,-6 11,-12l51 -42c-45,-2 -90,-12 -132,-28 -37,-15 -70,-36 -100,-62 -20,-18 -37,-38 -51,-60 -13,-20 -24,-42 -32,-65 -8,-21 -13,-44 -16,-66 -3,-21 -5,-42 -5,-64 0,-17 2,-34 4,-50 3,-20 8,-41 15,-60 8,-22 18,-44 29,-64 13,-22 29,-43 47,-61 13,-13 28,-25 44,-36 18,-12 37,-22 57,-29 23,-9 47,-15 72,-19 28,-5 56,-7 85,-7 2,0 3,0 5,0l60 0c22,1 44,4 65,8l46 8 42 5c2,0 3,-1 5,-1 2,0 3,0 5,1 0,1 1,2 1,3 0,1 0,2 -1,3 0,2 0,5 0,8 0,2 0,5 0,8 0,6 0,18 0,33 0,15 0,15 0,24 0,9 0,18 0,27 0,9 0,17 0,23 0,6 0,12 0,16 0,4 0,18 -8,18 -8,0 -7,-6 -7,-18 0,-17 -3,-33 -9,-49 -5,-15 -15,-28 -27,-39 -21,-16 -46,-28 -72,-34 -32,-10 -65,-14 -98,-14 -2,0 -3,0 -5,0 0,0 -1,0 -1,0 -24,0 -47,2 -71,6 -19,3 -37,8 -55,14 -14,5 -28,12 -40,20 -10,7 -19,14 -27,22 -30,28 -51,63 -62,102 -13,41 -21,84 -23,127l0 0z"/>
    <path fill="#231F20" fill-rule="nonzero" d="M13582 2153l195 -534c3,-9 7,-18 11,-27 0,-4 5,-6 8,-6 4,0 7,2 8,6 4,8 8,16 11,25l16 41 30 79 39 103 42 110 40 104 32 82c6,16 14,32 22,47 6,10 13,20 20,29 5,6 11,11 17,14l15 6c6,2 12,4 19,4l16 0c6,0 9,2 9,5 0,3 0,5 -5,6l-12 0 -91 0 -44 0 -19 0c-4,0 -7,0 -7,-5 0,-5 0,-5 6,-6 3,-1 6,-4 7,-7 1,-2 2,-5 2,-8 0,-3 -1,-5 -2,-8l-80 -215c-1,-3 -4,-5 -8,-5 0,0 0,0 0,0l-185 0c0,0 0,0 0,0 -4,0 -8,3 -9,7l-53 154c-7,18 -11,38 -12,57 0,0 0,1 0,1 0,7 4,14 11,18 7,4 14,6 22,6 0,0 0,0 0,0l9 0c6,0 9,2 9,5 0,4 -4,7 -13,7l-163 0c-11,0 -16,-2 -16,-7 0,-5 0,-5 8,-5l9 0 13 0c18,-2 35,-12 45,-27 12,-17 22,-36 29,-55l0 0zm121 -190l164 0c0,0 4,0 0,-6l-78 -235c-4,-13 -9,-13 -13,0l-76 232c-1,4 -1,6 3,6l0 2z"/>
    <path fill="#231F20" fill-rule="nonzero" d="M14458 1996l0 -287c0,-13 0,-23 0,-31 0,-8 0,-15 0,-22 0,-12 -3,-23 -9,-34 -7,-9 -17,-15 -29,-16l-14 0 -15 0c-5,0 -7,-2 -7,-5 0,-4 4,-7 14,-7l309 0 22 0 16 0 7 0 5 0c0,0 5,0 5,8 0,2 0,5 0,7 0,2 0,5 0,7 -2,9 -4,18 -4,27 -1,9 0,6 0,11 0,6 0,11 0,17 0,6 0,11 0,17 0,2 0,4 0,6 0,2 0,4 0,6l0 6c-1,0 -2,1 -3,1 -1,0 -2,0 -3,-1 -4,0 -6,0 -6,-10 0,-2 0,-5 0,-7 0,-2 0,-5 0,-7 -1,-6 -3,-12 -6,-18 -4,-8 -11,-14 -19,-18 -12,-7 -25,-10 -39,-10 0,0 0,0 0,0l-133 0c-5,0 -8,0 -8,9l0 238c0,5 0,8 6,8l149 0 24 -4c6,-2 12,-6 15,-11l5 -6c1,0 2,0 3,0 1,0 2,0 3,1 1,0 4,0 4,7 0,2 0,5 0,8 0,3 0,5 0,8 -2,11 -4,21 -4,32 0,4 0,10 0,16l0 33c0,5 0,8 0,9 0,2 0,4 0,6 0,2 0,4 0,6 0,2 0,5 -5,5 -5,0 -6,0 -6,-8 0,-8 0,-9 0,-15 0,-3 0,-5 0,-8 0,-3 0,-5 0,-8 -3,-7 -8,-14 -14,-19 -9,-7 -20,-11 -31,-12l-27 0 -103 0c-4,0 -6,0 -6,8l0 72c0,41 0,78 0,110 0,2 0,4 0,5 0,24 1,47 4,71 1,11 3,22 8,32 5,9 15,16 26,16l21 0 18 0c4,0 7,0 7,5 0,5 -4,7 -14,7l-217 0c-9,0 -14,0 -14,-7 0,-7 0,-5 7,-5l13 0 13 0c30,-18 30,-205 31,-247z"/>
    <path fill="#231F20" fill-rule="nonzero" d="M15416 1996l0 -287c0,-13 0,-23 0,-31 0,-8 0,-15 0,-22 0,-12 -3,-23 -9,-34 -7,-9 -17,-15 -29,-16l-14 0 -15 0c-5,0 -7,-2 -7,-5 0,-4 4,-7 14,-7l287 0c31,0 61,4 91,9 32,6 64,16 94,29 32,14 61,34 85,60 11,12 22,25 32,39 10,15 19,32 27,49 8,19 14,39 19,59 5,23 7,47 7,70 0,1 0,1 0,2 0,0 0,1 0,1 0,25 -3,51 -8,75 -5,23 -12,45 -21,67 -8,19 -18,38 -29,55 -19,29 -44,55 -72,76 -17,13 -35,24 -54,32 -23,11 -47,19 -72,25 -30,7 -61,10 -93,10 -2,0 -3,0 -5,0l-60 0 -60 0 -48 0 -23 0 -85 0c-9,0 -14,0 -14,-7 0,-7 0,-5 7,-5l13 0 13 0c9,-1 16,-8 18,-16 3,-10 6,-21 7,-32 2,-24 4,-48 4,-72 0,-1 0,-3 0,-4 -1,-39 -1,-80 -1,-121zm72 -165l0 172c0,21 0,39 0,56 0,17 0,31 0,42 0,11 0,19 0,23 0,5 0,11 0,18l0 19c0,3 0,6 0,9 0,3 0,6 0,9 1,4 2,8 4,11 4,5 8,9 14,12 8,5 17,9 26,11 14,4 29,7 43,8 11,1 21,1 32,1 11,0 21,0 32,-1 1,0 1,0 2,0 38,0 76,-7 112,-21 34,-13 66,-34 92,-60 12,-12 21,-25 29,-39 9,-16 16,-33 22,-50 6,-18 11,-37 14,-57 3,-20 4,-39 4,-59 0,0 0,0 0,0 0,-24 -3,-48 -8,-72 -5,-21 -11,-41 -20,-61 -7,-17 -17,-33 -27,-47 -8,-12 -18,-23 -27,-34 -19,-20 -40,-37 -64,-51 -23,-13 -47,-23 -72,-29 -23,-7 -47,-12 -72,-14 -25,0 -50,0 -76,0l-15 0 -10 0 -15 0 -9 0c-6,3 -10,9 -10,15 0,1 0,1 0,2 0,8 0,18 0,32 0,13 0,29 0,46l0 109z"/>
    <path fill="#231F20" fill-rule="nonzero" d="M16157 1996l0 -287c0,-13 0,-23 0,-31 0,-8 0,-15 0,-22 0,-12 -3,-23 -9,-34 -7,-9 -17,-15 -29,-16l-14 0 -15 0c-5,0 -7,-2 -7,-5 0,-4 4,-7 14,-7l62 0 35 0 197 0c12,-1 25,-2 37,-4l6 0 6 0c0,0 0,0 0,8 0,2 0,5 0,7 0,2 0,5 0,7 -2,9 -4,18 -4,27 -1,9 0,6 0,11 0,6 0,11 0,17 0,6 0,11 0,17 0,2 0,4 0,6 0,2 0,4 0,6l0 6c-1,0 -1,0 -2,0 -1,0 -1,0 -2,0 -4,0 -7,-4 -7,-11 0,-8 0,-7 0,-14 0,-6 -2,-12 -4,-17 -3,-7 -9,-14 -16,-18 -14,-7 -30,-11 -46,-11l-23 0 -95 0c0,0 -5,0 -5,9l0 237c0,6 0,9 5,9l108 0 29 0 25 0c6,-1 12,-4 16,-9 6,-7 11,-11 13,-11 2,0 4,0 4,7 0,3 0,5 0,8 0,3 0,5 0,8 -2,11 -4,22 -4,33 0,4 0,9 0,15 0,6 0,11 0,17l0 14c0,4 0,7 0,9 0,2 0,4 0,5 0,2 0,4 0,5 0,4 0,6 -5,6 -5,0 -6,0 -6,-8 0,-8 0,-9 0,-14 0,-2 0,-5 0,-8 0,-3 0,-5 0,-8 -2,-7 -6,-14 -11,-19 -10,-7 -21,-11 -33,-11 0,0 0,0 0,0l-27 0 -38 0 -58 0c0,0 0,0 -1,0 -3,0 -5,2 -5,5 0,0 0,1 0,1l0 222c0,12 2,24 5,36 2,9 7,16 14,21 9,6 19,9 29,10 8,1 17,1 25,1 8,0 17,0 25,-1l42 0c14,0 28,-3 42,-8 11,-4 20,-11 26,-21 7,-13 11,-27 13,-41 0,-9 3,-13 8,-13 0,0 0,0 1,0 2,0 4,2 4,4 0,0 0,0 0,0 0,0 0,6 0,9 0,3 0,6 0,14l0 24 0 27c0,3 0,7 0,10 0,3 0,7 0,10 -1,4 -3,9 -5,13 -2,3 -5,5 -8,6 -2,0 -4,1 -6,1 -2,0 -4,0 -6,-1l-134 0 -61 0 -42 0 -110 0c-9,0 -14,0 -14,-7 0,-7 0,-5 7,-5l13 0 13 0c9,-1 16,-8 18,-16 3,-10 6,-21 7,-32 2,-24 4,-48 4,-72 0,-1 0,-3 0,-4 0,-41 1,-83 1,-124z"/>
    <path fill="#231F20" fill-rule="nonzero" d="M16644 1996l0 -287c0,-13 0,-23 0,-31 0,-8 0,-15 0,-22 0,-12 -3,-23 -9,-34 -7,-9 -17,-15 -29,-16l-14 0 -15 0c-5,0 -7,-2 -7,-5 0,-4 4,-7 14,-7l199 0c0,0 0,0 0,0 27,0 55,2 82,6 26,5 51,16 72,32 6,5 12,11 18,17 7,8 14,16 19,25 6,11 12,22 16,34 4,13 6,27 6,40 0,0 0,1 0,1 0,34 -8,67 -23,97 -20,39 -48,73 -81,102l98 124c29,37 56,69 82,96 17,20 38,36 62,48 14,6 28,11 43,14l21 0 13 0c5,0 8,2 8,5 0,0 0,0 0,0 0,3 -2,5 -4,6l-17 0 -61 0c-9,1 -19,1 -28,1 -9,0 -19,0 -28,-1 -13,-2 -25,-6 -36,-13 -20,-12 -39,-27 -53,-46 -17,-21 -38,-48 -63,-80l-27 -37 -27 -36 -23 -32 -17 -23c-3,-3 -7,-5 -11,-5l-106 0c-4,0 -6,0 -6,7l0 21c0,41 0,78 0,110 0,2 0,4 0,6 0,24 1,47 4,71 1,11 3,22 8,32 5,9 15,15 26,16l21 0 18 0c4,0 7,0 7,5 0,5 -4,7 -14,7l-106 0 -31 0 -50 0c-9,0 -14,0 -14,-7 0,-7 0,-5 7,-5l13 0 13 0c9,-1 16,-8 18,-16 3,-10 6,-21 7,-32 2,-24 4,-48 4,-72 0,-1 0,-3 0,-4 1,-33 2,-70 2,-111zm72 -359l0 281c0,0 0,0 0,0 0,4 2,8 6,10 11,6 23,9 36,10 17,2 34,4 52,4 1,0 2,0 3,0 5,0 11,1 17,1 5,0 11,0 17,-1 11,-2 22,-7 32,-14 17,-13 30,-30 37,-49 10,-25 15,-51 15,-77 0,-2 0,-4 0,-6 0,-4 0,-7 0,-11 0,-42 -14,-82 -40,-115 -26,-29 -63,-46 -102,-46 -2,0 -4,0 -7,0l-35 0 -22 0c0,0 -1,0 -1,0 -7,0 -6,9 -6,14z"/>
    <path fill="#231F20" fill-rule="nonzero" d="M17187 2153l195 -534c3,-9 7,-18 11,-27 0,-4 5,-6 8,-6 3,0 7,2 8,6 4,8 8,16 11,25l16 41 30 79 39 103 42 110 40 104 32 82c6,16 14,32 22,47 6,10 13,20 20,29 5,6 11,11 17,14l15 6c6,2 12,4 19,4l14 0c6,0 9,2 9,5 0,3 0,5 -5,6l-12 0 -91 0 -44 0 -19 0c-4,0 -7,0 -7,-5 0,-5 0,-5 6,-6 3,-1 6,-4 7,-7 1,-2 2,-5 2,-8 0,-3 -1,-5 -2,-8l-80 -215c-1,-3 -4,-5 -8,-5 0,0 0,0 0,0l-185 0c0,0 0,0 0,0 -4,0 -8,3 -9,7l-51 154c-7,18 -11,38 -12,57 0,0 0,1 0,1 0,7 4,14 11,18 7,4 14,6 22,6 0,0 0,0 0,0l9 0c6,0 9,2 9,5 0,4 -4,7 -13,7l-164 0c-11,0 -17,-2 -17,-7 0,-5 0,-5 8,-5l12 0 13 0c18,-2 35,-12 45,-27 11,-17 20,-36 27,-55l0 0zm285 -190c0,0 4,0 0,-6l-78 -235c-4,-13 -9,-13 -13,0l-76 232c-1,4 0,8 3,8l164 0z"/>
    <path fill="#231F20" fill-rule="nonzero" d="M17895 1998c0,63 0,111 0,143 0,1 0,3 0,4 0,19 6,37 16,52 4,4 8,7 12,9 6,3 12,5 19,6l29 0 42 0c10,1 21,1 31,1 10,0 21,0 31,-1 16,-2 32,-10 42,-22 6,-8 11,-16 14,-25 4,-8 6,-17 8,-27 0,-7 4,-11 8,-11 4,0 5,4 5,13 0,9 0,7 0,14 0,6 0,14 0,23l-4 27c-1,8 -3,15 -5,23 -1,4 -3,8 -5,12 -2,3 -4,6 -7,7 -2,0 -5,1 -8,1 -3,0 -5,0 -8,-1l-108 0 -62 0 -48 0 -72 0 -27 0 -23 0c-9,0 -14,0 -14,-7 0,-7 0,-5 7,-5l13 0 13 0c9,-1 16,-8 18,-16 3,-10 6,-21 7,-32 2,-24 4,-48 4,-72 0,-1 0,-3 0,-4 0,-33 0,-69 0,-111l0 -287c0,-13 0,-23 0,-31 0,-8 0,-15 0,-22 0,-12 -3,-23 -9,-34 -7,-9 -17,-15 -29,-16l-14 0 -15 0c-5,0 -7,-2 -7,-5 0,-4 4,-7 14,-7l190 0c9,0 14,0 14,7 0,7 0,5 -7,5l-18 0 -16 0c-10,1 -19,7 -25,15 -5,11 -8,22 -8,34 0,7 0,14 0,22 0,8 0,18 0,31l0 132 1 153z"/>
    <path fill="#231F20" fill-rule="nonzero" d="M10683 2749l11 412c0,18 0,32 0,44 1,10 3,20 6,29 2,7 5,13 10,18 4,4 9,7 14,9 8,2 16,4 24,4l21 0c4,0 7,0 7,5 0,5 -5,7 -16,7l-61 0 -30 0 -29 0 -53 0c-9,0 -14,0 -14,-7 0,-7 0,-5 7,-5l16 0c7,-1 14,-2 20,-4 12,-4 20,-15 21,-27 3,-23 5,-46 5,-70 0,-4 0,-8 0,-12l0 -494c-1,-6 -1,-11 -1,-17 0,-6 0,-11 1,-17 0,-6 4,-9 7,-9 4,0 8,0 14,10l16 17 29 32 62 67 85 91 100 108 64 72 61 66 50 55 32 34 -9 -438c0,-2 0,-4 0,-6 0,-18 -2,-36 -7,-53 -4,-11 -14,-20 -27,-22l-24 0 -18 0c-4,0 -7,0 -7,-6 0,-6 6,-6 17,-6l90 0 27 0 47 0c10,0 16,0 16,6 0,6 0,6 -9,6l-8 0 -12 0c-12,1 -22,9 -27,21 -3,15 -5,31 -5,46 0,3 0,6 0,9l0 502c0,14 0,26 0,34 0,8 0,14 0,18 0,1 0,3 0,4 0,1 0,3 0,4 -1,0 -1,0 -2,0 -1,0 -1,0 -2,0l-6 0 -11 -8 -18 -17 -28 -28 -27 -27 -55 -57 -72 -72 -72 -77 -72 -80 -66 -72 -52 -58 -41 -44z"/>
    <path fill="#231F20" fill-rule="nonzero" d="M11376 3184l195 -534c3,-9 7,-18 11,-27 0,-4 5,-6 8,-6 3,0 7,3 8,6 4,8 8,16 11,25l16 41 30 79 39 103 42 110 37 105 32 82c6,16 14,32 22,47 6,10 13,20 20,29 5,6 11,11 17,14l15 6c6,2 12,4 19,4l18 0c6,0 9,0 9,5 0,5 0,5 -5,6l-12 0 -91 0 -44 0 -19 0c-4,0 -7,0 -7,-5 0,-5 0,-5 6,-6 3,-1 6,-4 7,-7 1,-2 2,-5 2,-8 0,-3 -1,-5 -2,-8l-80 -215c-1,-3 -4,-5 -7,-5 0,0 0,0 -1,0l-185 0c0,0 0,0 0,0 -4,0 -8,3 -9,7l-52 152c-7,18 -11,38 -12,57 0,0 0,1 0,1 0,7 4,14 11,18 7,4 14,6 22,6 0,0 0,0 0,0l9 0c6,0 9,0 9,5 0,5 -4,7 -13,7l-164 0c-11,0 -17,0 -17,-7 0,-7 0,-5 8,-5l12 0 13 0c18,-2 35,-12 45,-27 11,-17 20,-35 27,-55l0 0zm121 -190l164 0c0,0 4,0 0,-6l-82 -232c-4,-13 -9,-13 -13,0l-76 232c2,4 3,6 6,6z"/>
    <path fill="#231F20" fill-rule="nonzero" d="M12253 3029l0 -287c0,-13 0,-23 0,-31 0,-8 0,-15 0,-22 0,-12 -3,-23 -9,-34 -7,-9 -17,-15 -29,-16l-14 0 -15 0c-4,0 -7,0 -7,-5 0,-5 4,-7 14,-7l98 0 47 0 62 0c3,0 6,0 9,0 21,0 42,2 62,6 16,3 32,8 47,14 10,4 20,9 29,16l16 14c12,12 21,26 29,41 9,18 14,39 14,60 0,1 0,1 0,2 0,1 0,2 0,2 0,28 -5,55 -16,81 -10,25 -25,47 -45,65 -19,18 -42,33 -67,42 -26,9 -53,14 -81,14 -1,0 -2,0 -4,0l-18 0 -6 0c-1,-1 -1,-2 -1,-3 0,-1 0,-2 1,-3 0,0 0,0 0,-1 0,-3 2,-5 5,-6l19 0c0,0 1,0 1,0 20,0 39,-4 58,-11 18,-7 34,-17 47,-29 13,-13 24,-28 32,-44 8,-17 11,-35 11,-54 0,0 0,-1 0,-2 0,-7 0,-16 0,-26 -1,-11 -3,-23 -6,-34 -3,-13 -8,-25 -14,-37 -14,-26 -36,-48 -62,-62 -12,-8 -26,-13 -39,-17 -9,-2 -19,-3 -29,-4l-21 0 -22 4c-5,0 -11,2 -16,4 -4,0 -7,7 -7,17l0 354c0,41 0,78 0,110 0,2 0,4 0,5 0,24 1,47 4,71 1,11 4,22 8,32 5,9 15,16 26,16l21 0 18 0c4,0 7,0 7,5 0,5 -4,7 -14,7l-190 0c-9,0 -14,0 -14,-7 0,-7 0,-5 7,-5l13 0 13 0c8,-2 15,-8 18,-16 3,-10 6,-21 7,-32 2,-24 4,-48 4,-72 0,-1 0,-3 0,-4 0,-32 0,-69 0,-110z"/>
    <path fill="#231F20" fill-rule="nonzero" d="M12656 3184l194 -534c3,-9 7,-18 11,-27 0,-4 5,-6 8,-6 3,0 7,3 8,6 4,8 8,16 11,25l16 41 30 79 39 103 42 110 40 104 32 82c6,16 14,32 22,47 6,10 13,20 20,29 5,6 11,11 17,14l15 6c6,2 12,4 19,4l16 0c6,0 9,0 9,5 0,5 0,5 -5,6l-12 0 -91 0 -44 0 -19 0c-4,0 -7,0 -7,-5 0,-5 0,-5 6,-6 3,-1 6,-4 7,-7 1,-2 2,-5 2,-8 0,-3 -1,-5 -2,-8l-80 -215c-1,-3 -4,-5 -7,-5 0,0 0,0 -1,0l-185 0c0,0 0,0 0,0 -4,0 -8,3 -9,7l-52 154c-7,18 -11,38 -12,57 0,0 0,1 0,1 0,7 4,14 11,18 7,4 14,6 22,6 0,0 0,0 0,0l9 0c6,0 9,0 9,5 0,5 -4,7 -13,7l-164 0c-11,0 -17,0 -17,-7 0,-7 0,-5 8,-5l12 0 13 0c18,-2 35,-12 45,-27 11,-17 21,-36 27,-55l0 0zm122 -190l164 0c0,0 4,0 0,-6l-82 -232c-4,-13 -9,-13 -13,0l-76 232c1,4 1,6 6,6z"/>
    <path fill="#231F20" fill-rule="nonzero" d="M13291 3029l0 -287c0,-13 0,-23 0,-31 0,-8 0,-15 0,-22 -1,-12 -5,-23 -11,-34 -7,-9 -17,-15 -29,-16l-14 0 -15 0c-4,0 -7,0 -7,-5 0,-5 4,-7 14,-7l199 0c0,0 0,0 0,0 28,0 55,2 82,6 36,4 69,22 93,48 7,8 14,16 19,25 7,11 12,22 16,34 4,13 6,27 6,40 0,0 0,1 0,1 0,34 -8,67 -23,97 -20,39 -48,73 -81,102l98 125c29,37 56,69 82,96 17,20 38,36 62,48 14,6 28,11 43,14l21 0 13 0c5,0 8,0 8,5 0,0 0,1 0,1 0,3 -2,5 -4,5l-17 0 -64 0c-9,1 -19,1 -28,1 -9,0 -19,0 -28,-1 -13,-2 -25,-6 -36,-13 -21,-12 -39,-27 -53,-46 -17,-21 -38,-48 -63,-80l-27 -37 -27 -36 -23 -32 -17 -23c-3,-3 -7,-5 -11,-5l-106 0c-4,0 -6,0 -6,7l0 21c0,41 0,78 0,111 0,2 0,4 0,5 0,24 1,47 4,71 1,11 3,22 8,32 5,9 15,16 26,16l21 0 18 0c4,0 7,0 7,5 0,5 -4,7 -14,7l-106 0 -31 0 -50 0c-9,0 -14,0 -14,-7 0,-7 0,-5 7,-5l13 0 13 0c8,-2 15,-8 18,-16 3,-10 6,-21 7,-32 2,-24 4,-48 4,-72 0,-1 0,-3 0,-4 2,-33 3,-70 3,-112zm72 -359l0 281c0,0 0,0 0,0 0,4 2,8 6,10 11,6 23,9 36,10 17,2 34,4 52,4 1,0 2,0 3,0 5,0 11,1 17,1 5,0 11,0 17,-1 11,-2 22,-7 32,-14 17,-13 30,-30 37,-49 10,-24 15,-51 15,-77 0,-2 0,-4 0,-6 0,-4 0,-7 0,-11 0,-42 -14,-82 -40,-115 -26,-30 -64,-48 -104,-48 -3,0 -6,0 -9,0l-35 0 -22 0c-5,1 -8,5 -8,10 0,2 1,4 2,6l3 -1z"/>
    <path fill="#231F20" fill-rule="nonzero" d="M13834 3184l195 -534c3,-9 7,-18 11,-27 0,-4 5,-6 8,-6 3,0 7,3 8,6 4,8 8,16 11,25l16 41 30 79 39 103 42 110 40 104 32 82c6,16 14,32 22,47 6,10 13,20 20,29 5,6 11,11 17,14l15 6c6,2 12,4 19,4l16 0c6,0 9,0 9,5 0,5 0,5 -5,6l-12 0 -91 0 -44 0 -19 0c-4,0 -7,0 -7,-5 0,-5 0,-5 6,-6 3,-1 6,-4 7,-7 1,-2 2,-5 2,-8 0,-3 -1,-5 -2,-8l-80 -215c-1,-3 -4,-5 -7,-5 0,0 0,0 -1,0l-185 0c0,0 0,0 0,0 -4,0 -8,3 -9,7l-52 152c-7,18 -11,38 -12,57 0,0 0,1 0,1 0,7 4,14 11,18 7,4 14,6 22,6 0,0 0,0 0,0l9 0c6,0 9,0 9,5 0,5 -4,7 -13,7l-164 0c-11,0 -17,0 -17,-7 0,-7 0,-5 8,-5l12 0 13 0c18,-2 35,-12 45,-27 10,-17 19,-34 25,-53l0 0zm121 -190l164 0c0,0 4,0 0,-6l-78 -232c-4,-13 -9,-13 -13,0l-76 232c-1,4 0,6 3,6z"/>
    <path fill="#231F20" fill-rule="nonzero" d="M14542 2877l0 151c0,41 0,78 0,110 0,2 0,4 0,5 0,24 1,47 4,71 1,11 4,22 8,32 5,9 15,16 26,16l21 0 18 0c4,0 7,0 7,5 0,5 -4,7 -14,7l-190 0c-9,0 -14,0 -14,-7 0,-7 0,-5 7,-5l13 0 13 0c8,-2 15,-8 18,-16 3,-10 6,-21 7,-32 2,-24 4,-48 4,-72 0,-1 0,-3 0,-4 0,-32 0,-69 0,-110l0 -287c0,-13 0,-23 0,-31 0,-8 0,-15 0,-22 0,-28 -11,-44 -29,-48l-14 0 -12 0c-4,0 -7,0 -7,-5 0,-5 4,-7 14,-7l171 0c9,0 14,0 14,7 0,7 0,5 -7,5l-9 0 -15 0c-10,1 -19,6 -24,15 -5,10 -8,22 -8,34 0,7 0,14 0,22 0,8 0,18 0,31l0 135 0 0zm72 -405l9 16 12 22c0,4 0,6 0,8 -1,0 -2,0 -3,0 -1,0 -2,0 -3,-1l-8 0c-3,0 -6,-1 -9,-1 -3,0 -6,0 -9,1l-34 6 -37 9 -34 11 -27 10 -13 4c0,0 -4,0 -4,-5 0,-5 0,-4 6,-7l30 -20 37 -24 33 -20 17 -10 16 -9 8 0c0,0 9,4 13,9l-2 0z"/>
    <path fill="#231F20" fill-rule="nonzero" d="M14810 3029l0 -287c0,-13 0,-23 0,-31 0,-8 0,-15 0,-22 0,-12 -3,-23 -9,-34 -7,-9 -17,-15 -29,-16l-14 0 -15 0c-4,0 -7,0 -7,-5 0,-5 4,-7 14,-7l98 0 39 0 55 0c2,0 5,0 7,0 27,0 54,5 79,14 20,8 38,19 53,34 12,12 21,26 27,42 4,12 7,25 7,38 0,0 0,1 0,1 0,16 -2,32 -7,47 -5,14 -11,28 -19,40 -8,12 -16,24 -26,35 -9,11 -19,22 -29,32 17,6 34,14 50,23 18,10 34,23 48,38 15,16 27,34 36,53 9,21 14,43 14,66 0,1 0,2 0,3 0,23 -5,47 -14,68 -9,23 -23,43 -41,60 -21,19 -45,34 -72,43 -29,11 -60,17 -91,17 -2,0 -3,0 -5,0l-25 0 -37 0 -34 0 -103 0c-9,0 -14,0 -14,-7 0,-7 0,-5 7,-5l13 0 13 0c8,-2 15,-8 18,-16 3,-10 6,-21 7,-32 2,-24 4,-48 4,-72 0,-1 0,-3 0,-4 1,-36 2,-75 2,-117zm72 -363l0 231c0,0 0,0 0,1 0,4 2,7 6,9l17 0 36 0 30 0c3,0 7,1 10,1 3,0 7,0 10,-1 5,-2 10,-4 14,-7 5,-3 10,-8 14,-12 10,-11 17,-24 22,-38 6,-15 9,-31 9,-48 0,0 0,-1 0,-1 0,-18 -2,-36 -6,-53 -4,-17 -11,-33 -20,-48 -9,-14 -21,-25 -36,-34 -14,-7 -30,-11 -46,-11 -3,0 -7,0 -10,0l-19 0 -22 0c-7,0 -11,6 -11,11l3 0zm0 273l0 162c0,19 0,35 0,48 0,14 0,22 0,25 0,3 0,19 0,27 0,6 2,12 4,18 2,5 5,9 8,12 5,4 10,8 16,10 6,3 13,6 19,7l22 4 20 0 15 0c13,0 26,-2 38,-6 14,-4 28,-10 39,-19 13,-10 24,-23 31,-37 8,-17 12,-36 12,-55 0,-2 0,-3 0,-5 0,-14 -1,-28 -4,-42 -3,-16 -7,-32 -14,-47 -7,-16 -15,-31 -25,-44 -11,-15 -25,-28 -41,-39 -12,-8 -25,-15 -39,-19 -11,-3 -21,-5 -32,-6l-14 0 -54 0c0,0 -4,2 -4,9l3 -4z"/>
    <path fill="#231F20" fill-rule="nonzero" d="M15289 3184l195 -534c3,-9 7,-18 11,-27 0,-4 5,-6 8,-6 3,0 7,3 8,6 4,8 8,16 12,25l16 41 30 79 39 103 42 110 40 104 32 82c6,16 14,32 22,47 6,10 13,20 20,29 5,6 11,11 17,14l15 6c6,2 12,4 19,4l16 0c6,0 9,0 9,5 0,5 0,5 -5,6l-12 0 -91 0 -44 0 -19 0c-4,0 -7,0 -7,-5 0,-5 0,-5 6,-6 3,-1 6,-4 7,-7 1,-2 2,-5 2,-8 0,-3 -1,-5 -2,-8l-80 -215c-1,-3 -4,-5 -7,-5 0,0 0,0 -1,0l-185 0c0,0 0,0 0,0 -4,0 -8,3 -9,7l-52 152c-7,18 -11,38 -12,57 0,0 0,1 0,1 0,7 4,14 11,18 7,4 14,6 22,6 0,0 0,0 0,0l9 0c6,0 9,0 9,5 0,5 -4,7 -13,7l-164 0c-11,0 -17,0 -17,-7 0,-7 0,-5 8,-5l12 0 13 0c18,-2 35,-12 45,-27 10,-17 19,-34 25,-53l0 0zm120 -190l164 0c0,0 4,0 0,-6l-82 -232c-4,-13 -9,-13 -13,0l-76 232c0,4 1,6 4,6l2 0z"/>
    <path fill="#231F20" fill-rule="nonzero" d="M14925 1996l0 -287c0,-13 0,-23 0,-31 0,-8 0,-15 0,-22 0,-12 -3,-23 -9,-34 -7,-9 -17,-15 -29,-16l-14 0 -15 0c-5,0 -7,-2 -7,-5 0,-4 4,-7 14,-7l62 0 35 0 197 0c12,-1 25,-2 37,-4l6 0 6 0c0,0 0,0 0,8 0,2 0,5 0,7 0,2 0,5 0,7 -2,9 -4,18 -4,27 -1,9 0,6 0,11 0,6 0,11 0,17 0,6 0,11 0,17 0,2 0,4 0,6 0,2 0,4 0,6l0 6c-1,0 -1,0 -2,0 -1,0 -1,0 -2,0 -4,0 -7,-4 -7,-11 0,-8 0,-7 0,-14 0,-6 -2,-12 -4,-17 -3,-7 -9,-14 -16,-18 -14,-7 -30,-11 -46,-11l-23 0 -95 0c0,0 -5,0 -5,9l0 237c0,6 0,9 5,9l108 0 29 0 25 0c6,-1 12,-4 16,-9 6,-7 11,-11 13,-11 2,0 4,0 4,7 0,3 0,5 0,8 0,3 0,5 0,8 -2,11 -4,22 -4,33 0,4 0,9 0,15 0,6 0,11 0,17l0 14c0,4 0,7 0,9 0,2 0,4 0,5 0,2 0,4 0,5 0,4 0,6 -5,6 -5,0 -6,0 -6,-8 0,-8 0,-9 0,-14 0,-2 0,-5 0,-8 0,-3 0,-5 0,-8 -2,-7 -6,-14 -12,-19 -10,-7 -21,-11 -33,-11 0,0 0,0 0,0l-27 0 -38 0 -58 0c0,0 0,0 -1,0 -3,0 -5,2 -5,5 0,0 0,1 0,1l0 222c0,12 2,24 5,36 2,9 7,16 14,21 9,6 19,9 29,10 8,1 17,1 25,1 8,0 17,0 25,-1l42 0c14,0 28,-3 42,-8 11,-4 20,-11 26,-21 7,-13 11,-27 13,-41 0,-9 3,-13 8,-13 0,0 0,0 1,0 2,0 4,2 4,4 0,0 0,0 0,0 0,0 0,6 0,9 0,3 0,6 0,14l0 24 0 27c0,3 0,7 0,10 0,3 0,7 0,10 -1,4 -3,9 -5,13 -2,3 -5,5 -8,6 -2,0 -4,1 -6,1 -2,0 -4,0 -6,-1l-134 0 -61 0 -42 0 -110 0c-9,0 -14,0 -14,-7 0,-7 0,-5 7,-5l13 0 13 0c9,-1 16,-8 18,-16 3,-10 6,-21 7,-32 2,-24 4,-48 4,-72 0,-1 0,-3 0,-4 0,-41 1,-83 1,-124z"/>
   </g>
   <g>
    <path fill="#A6A8AA" d="M1928 4472l0 -1118c0,-405 -328,-733 -732,-733l-1195 0 522 501 557 0c383,0 694,311 694,694l0 507 154 148z"/>
    <path fill="#A6A8AA" d="M2082 0l0 1118c0,405 328,733 733,733l1195 0 -522 -501 -557 0c-383,0 -694,-311 -694,-694l0 -507 -154 -148z"/>
    <path fill="#005092" d="M1928 1735l0 -1118 -540 518 0 484c0,405 -328,733 -733,733l-535 0 -120 116 1195 0c405,0 732,-328 732,-733z"/>
    <path fill="#00762A" d="M2082 2737l0 1118 540 -518 0 -484c0,-405 328,-732 733,-732l535 0 120 -116 -1195 0c-405,0 -733,328 -733,733z"/>
   </g>
  </g>
 </g>
</svg>
