<?xml version="1.0" encoding="UTF-8"?>
<!DOCTYPE svg PUBLIC "-//W3C//DTD SVG 1.1//EN" "http://www.w3.org/Graphics/SVG/1.1/DTD/svg11.dtd">
<!-- Creator: CorelDRAW -->
<svg xmlns="http://www.w3.org/2000/svg" xml:space="preserve" width="198.157mm" height="68.0684mm" version="1.1" style="shape-rendering:geometricPrecision; text-rendering:geometricPrecision; image-rendering:optimizeQuality; fill-rule:evenodd; clip-rule:evenodd"
viewBox="0 0 20336.2 6985.63"
 xmlns:xlink="http://www.w3.org/1999/xlink"
 xmlns:xodm="http://www.corel.com/coreldraw/odm/2003">
 <defs>
  <style type="text/css">
   <![CDATA[
    .fil4 {fill:#005092}
    .fil5 {fill:#00762A}
    .fil3 {fill:#A6A8AA}
    .fil0 {fill:white}
    .fil1 {fill:black;fill-rule:nonzero}
    .fil2 {fill:#231F20;fill-rule:nonzero}
   ]]>
  </style>
 </defs>
 <g id="Camada_x0020_1">
  <metadata id="CorelCorpID_0Corel-Layer"/>
  <g id="_2758709032960">
   <rect class="fil0" width="20336.2" height="6985.63"/>
   <g>
    <g>
     <path class="fil1" d="M6198.03 4153.43c0.71,12.3 1.11,24.97 1.11,37.37 0,156.28 -57.01,307.46 -160.22,424.81 -111.4,107.68 -260.47,167.96 -415.48,167.96 -13,0 -26.2,-0.51 -39.12,-1.31 -2.34,0.06 -4.78,0.06 -7.07,0.06 -114.55,0 -228.96,-16.87 -338.5,-50.01l15.93 -342.48c27.09,13.8 56.36,23.31 86.4,28.01 28.23,4.01 57.02,6.08 85.6,6.08 1.25,0 2.58,0 3.84,0 7.98,0.69 16.14,1.09 24.2,1.09 80.33,0 156.44,-36.37 206.91,-98.83 45.99,-66.9 70.71,-146.25 70.71,-227.44 0,-4.99 -0.14,-10.14 -0.29,-15.07l0 -1436.59 465.22 0 0.78 1506.35z"/>
     <polygon class="fil1" points="6839.8,2970.63 6839.8,3545.73 7679.35,3545.73 7679.35,3863.22 6839.8,3863.22 6839.8,4747.47 6377.59,4747.47 6377.59,2647.08 7720.28,2647.08 7720.28,2967.59 "/>
     <path class="fil1" d="M9386.48 3304.03c0.06,4.66 0.14,9.71 0.14,14.49 0,95.33 -18.92,189.92 -55.44,277.92 -33.85,80.34 -85.74,151.96 -151.53,209.14 -66.55,56.54 -144.02,99.37 -227.32,125.75 -89.24,28.04 -182.4,42.5 -276.01,42.5 -2.12,0 -4.5,0 -6.62,0l-415.25 0 0 773.63 -454.63 0 0 -2100.39 883.48 0c2.61,-0.03 5.44,-0.03 8.05,-0.03 92.1,0 183.97,14.43 271.6,42.47 83.43,26.07 160.83,69.02 227.27,125.81 65.38,56.27 117.27,126.89 151.55,206.07 30.16,78.98 45.6,162.98 45.6,247.55 0,11.63 -0.35,23.57 -0.86,35.11l-0.03 -0.02zm-465.25 0c0.11,-3.64 0.21,-7.37 0.21,-11.03 0,-51.23 -11.46,-101.89 -33.51,-148.11 -21.28,-42.1 -52.27,-78.76 -90.19,-106.82 -39.57,-29.06 -84.76,-50.03 -132.58,-61.37 -51.58,-12.51 -104.82,-18.96 -157.94,-18.96 -1.15,0 -2.29,0 -3.44,0l-256.14 0 0 697.85 164.41 0c62.15,-0.03 124.87,-4.01 186.49,-11.37 56.5,-5.96 111.8,-21.94 162.86,-47.02 47.15,-23.94 87.06,-60.43 115.13,-105.27 29.49,-52.12 44.99,-111.14 44.99,-171.06 0,-4.58 -0.08,-9.25 -0.26,-13.8l-0.03 -3.03z"/>
     <path class="fil1" d="M11037.52 4156.44c0.19,6.53 0.34,13.34 0.34,19.95 0,99.37 -26.31,197.18 -76.15,283.12 -46.34,75.89 -112.03,138.49 -190.13,181.08 -83.27,44.44 -173.94,73.77 -267.51,86.34 -99.34,14.43 -200.29,22.02 -300.95,22.02 -0.51,0 -1.52,0 -2.03,0l-763.86 0.03 0 -2101.91 856.99 0c0.56,0 1.65,0 2.29,0 84.37,0 168.9,8.42 251.58,24.94 78.07,14.98 153.27,43.36 221.95,83.39 65.09,38.83 119.45,93.62 157.59,159.11 39.46,71.59 60.19,152.24 60.19,234 0,5.87 -0.11,11.77 -0.29,17.59 0.32,7.25 0.49,14.75 0.49,22.04 0,110.52 -39.41,217.48 -111.14,301.48 -81.04,85.77 -187.23,144.22 -303.11,166.73 123.92,19.07 239.5,74.49 331.92,159.05 84.77,82.66 132.62,196.23 132.62,314.64 0,8.74 -0.32,17.64 -0.8,26.35l0 0.03zm-516 -928.94c0.05,-2.72 0.11,-5.47 0.11,-8.19 0,-45.36 -11.57,-90.03 -33.48,-129.73 -21.25,-36.45 -51.21,-67.18 -87.12,-89.41 -37.17,-22.94 -78.29,-38.89 -121.22,-46.99 -45.54,-9.39 -92.07,-14.29 -138.61,-14.38l-260.72 0 0 597.07 223.55 0c50.83,-0.02 101.75,-4.98 151.58,-14.43 46.27,-8.3 91.01,-24.83 131.76,-48.46 39.17,-23.19 71.83,-56.13 94.7,-95.47 25.83,-44.59 39.44,-95.28 39.44,-146.83 0,-1.03 0,-2.14 0,-3.18zm43.95 909.25c0.23,-5.06 0.37,-10.19 0.37,-15.23 0,-54.64 -14.83,-108.36 -42.81,-155.3 -27.87,-42.32 -66.28,-76.87 -111.38,-100 -48.68,-24.69 -101.29,-41.18 -155.29,-48.51 -56.51,-8.19 -114.01,-12.72 -171.23,-12.86l-201.61 0.02 0 653.15 220.51 0c54.32,-0.26 108.73,-5.23 162.17,-14.49 52.87,-7.93 104.22,-24.89 151.53,-49.92 43.59,-23.51 80.85,-57.42 108.33,-98.54 26.04,-43.24 39.84,-92.9 39.84,-143.42 0,-5.23 -0.17,-10.48 -0.43,-15.69l0 0.8z"/>
    </g>
    <g>
     <path class="fil2" d="M11929.29 3078.99l0 218.22c0,36.86 0,68.45 0,94.71 0,26.25 0,49.51 0,69.7 -1.49,18.27 -4.35,36.57 -8.33,54.53 -3.72,16.52 -8.78,32.79 -15.15,48.51 -11.2,25.05 -26.89,47.94 -46.25,67.44 -26.46,26.61 -55.76,50.55 -87.11,71.2l-18.93 12.88 -16.67 9.85 -6.07 0c-4.56,0 -6.08,0 -6.08,-5.3 -0.54,-1.06 -0.83,-2.24 -0.83,-3.41 0,-1.17 0.29,-2.35 0.8,-3.41l9.85 -6.81c5.96,-3.5 11.58,-7.56 16.73,-12.12l15.15 -13.63c13.66,-14.38 26.41,-29.96 37.83,-46.25 12.26,-18.33 21.51,-38.6 27.3,-59.85 8.33,-30.18 14,-61.26 16.67,-92.47 3.55,-37.35 5.33,-85.31 5.33,-143.9l0 -400.08c0,-13.63 0,-24.51 0,-32.58 0,-8.33 0,-15.93 0,-23.48 -0.32,-12.41 -3.44,-24.58 -9.08,-35.6 -7.36,-9.56 -18.36,-15.61 -30.33,-16.7l-15.15 0 -15.93 0c-5.04,0 -7.55,-1.74 -7.55,-5.3 0,-4.56 4.55,-7.59 14.4,-7.59l191.68 0.03c9.85,0 14.41,0 14.41,7.59 0,7.58 0,5.3 -7.59,5.3l-9.82 -0.03 -15.93 0c-10.33,1.2 -20.16,6.79 -25.02,15.93 -5.76,10.8 -8.22,23.34 -8.33,35.62 -0.06,7.53 0,15.15 0,23.48 0,8.33 0,18.93 0,32.59l0.02 140.93 0 0z"/>
     <path class="fil2" d="M12136.15 3211.59l0 -272.78c0,-13.63 0,-24.25 0,-32.58 0,-8.33 0,-15.93 0,-23.48 -0.29,-12.43 -3.41,-24.6 -9.1,-35.63 -7.34,-9.53 -18.33,-15.58 -30.31,-16.67l-15.15 0 -15.92 0c-4.56,0 -7.59,0 -7.59,-5.3 0,-5.3 4.56,-7.59 14.41,-7.59l194 0.03c9.85,0 14.4,0 14.4,7.59 0,7.58 0,5.3 -7.58,5.3l-12.89 -0.03 -12.89 0c-10.28,0.72 -19.61,6.36 -25,15.18 -5.21,11.43 -8.08,23.8 -8.33,36.37 0,7.59 0,15.15 0,23.48 0,8.33 0,18.93 0,32.59l0 267.48c-0.03,1.09 -0.03,2.32 -0.03,3.47 0,27.21 1.84,54.46 5.36,81.38 2.75,21.05 7.61,41.98 14.38,62.12 5.26,15.8 12.72,30.9 21.96,44.73 7.9,11.76 17.07,22.73 27.3,32.55 18.3,18.76 40.95,32.82 65.9,40.93 22.36,5.98 45.53,9.08 68.7,9.08 0.83,0 1.71,0 2.55,0 54.84,-0.35 106.97,-24.04 143.23,-65.16 21.99,-27.69 36.63,-60.57 42.41,-95.47 7.02,-40.07 10.63,-81.02 10.63,-121.8 0,-1.81 0,-3.69 0,-5.5l-0.03 -253.08c0,-13.63 0,-24.25 0,-32.58 0,-8.33 0,-15.93 0,-23.48 -0.24,-12.41 -3.36,-24.6 -9.08,-35.6 -7.33,-9.56 -18.33,-15.61 -30.3,-16.7l-15.15 0 -15.93 0c-4.56,0 -7.58,0 -7.58,-5.3 0,-5.3 4.55,-7.59 14.4,-7.59l172.75 0.03c9.84,0 14.4,0 14.4,7.59 0,7.58 0,5.3 -7.58,5.3l-9.82 -0.03 -12.89 0c-10.28,1.89 -19.33,7.93 -25,16.7 -5.24,11.11 -8.11,23.29 -8.33,35.6 0,7.58 0,15.15 0,23.48 0,8.33 0,18.92 0,32.58l0 238.67c0,25 0,50.01 0,75.78 -1.69,25.51 -5.82,51.01 -12.09,75.78 -5.93,23.39 -14.57,46.1 -25.8,67.44 -11.15,21.16 -26.07,40.21 -43.97,56.08 -15.18,13.58 -31.99,25.26 -49.97,34.82 -15.47,8.31 -31.81,15.21 -48.54,20.45 -15,4.8 -30.55,8.13 -46.22,9.85l-42.44 0 -33.33 0c-16.04,-1.15 -32.08,-3.73 -47.71,-7.56 -18.79,-4.73 -37.12,-11.31 -54.56,-19.74 -19.08,-9.13 -36.77,-21.16 -52.27,-35.54 -11.13,-11.51 -21.31,-24.02 -30.33,-37.17 -10.37,-15.23 -18.76,-31.88 -25,-49.23 -7.79,-21.31 -13.4,-43.47 -16.7,-65.92 -6.16,-29.93 -10.03,-60.43 -11.37,-90.93l0.03 0z"/>
     <path class="fil2" d="M12965.84 3515.44c-0.11,-0.03 -0.19,-0.03 -0.29,-0.03 -20.94,0 -41.95,-1.81 -62.6,-5.33 -20.44,-3.52 -40.37,-9.93 -59.1,-18.9 -6.81,0 -10.6,-6.07 -12.12,-10.59 -0.48,-4.06 -0.74,-8.11 -0.74,-12.14 0,-4.04 0.26,-8.11 0.71,-12.12 0,-23.22 0.03,-43.19 0.03,-59.85 0,-16.67 0,-28.78 0,-36.37 0,-7.58 0,-14.4 7.59,-14.4 7.58,0 6.07,0 6.07,9.85 0,9.85 0,9.1 0,15.15 -0.23,3.12 -0.34,6.33 -0.34,9.47 0,3.15 0.11,6.36 0.29,9.48 3.01,15.5 9.22,30.24 18.22,43.19 8.19,11.63 18.81,21.48 31.07,28.79 14.63,9.13 30.82,15.55 47.74,18.92 14.63,3.44 29.64,5.24 44.7,5.3 1.34,0.03 2.72,0.06 4.09,0.06 18.36,0 36.55,-3.63 53.47,-10.68 15.12,-6.53 28.78,-16.09 40.18,-27.98 10.62,-11.11 18.87,-24.29 24.25,-38.66 5.42,-14.04 8.25,-28.93 8.33,-43.97 -0.02,-0.66 0,-1.41 0,-2.08 0,-13.86 -1.8,-27.7 -5.33,-41.1 -3.84,-13.43 -9.71,-26.23 -17.41,-37.89 -9.48,-13.69 -20.45,-26.43 -32.59,-37.86 -13.15,-13.15 -29.56,-27.8 -49.25,-43.95l-40.93 -33.33c-21.02,-16.95 -40.81,-35.54 -59.11,-55.36 -13.66,-14.95 -25.69,-31.54 -35.62,-49.23 -8.14,-14.46 -14.29,-30.04 -18.15,-46.19 -3.47,-15.15 -5.28,-30.71 -5.3,-46.25 0,-0.94 -0.03,-1.97 -0.03,-2.95 0,-21.88 4.41,-43.57 12.91,-63.69 8.65,-19.77 21.62,-37.38 37.86,-51.55 17.27,-14.92 37.41,-26.29 59.11,-33.33 24.37,-8.03 49.86,-12.14 75.49,-12.14 0.08,0 0.19,0 0.29,0 7.79,-0.43 15.66,-0.64 23.48,-0.64 7.82,0 15.69,0.21 23.48,0.64 12.78,1.31 25.48,3.63 37.92,6.81l19.69 0 12.12 0.02c6.07,0 9.1,0 9.1,6.08 0,6.08 0,11.37 0,26.52 0,15.15 0,38.63 0,69.7 0,13.63 0,21.22 -6.07,21.22 -6.08,0 -4.56,0 -5.31,0 -0.11,-1.38 -0.14,-2.81 -0.14,-4.19 0,-1.36 0.03,-2.8 0.12,-4.18 0,-5.3 0,-12.89 -3.79,-23.48 -1.38,-7.65 -3.95,-15.1 -7.58,-21.96l-8.33 -12.12c-5.56,-6.64 -12.23,-12.28 -19.7,-16.7 -10.62,-6.3 -22.11,-11.17 -34.08,-14.38 -15.75,-4.03 -32.02,-6.1 -48.31,-6.1 -1.07,0 -2.18,0.03 -3.21,0.03 -1.01,-0.03 -2.06,-0.06 -3.09,-0.06 -28.01,0 -55.16,9.97 -76.5,28.1 -20.73,18.38 -32.61,44.85 -32.61,72.57 0,1.06 0.03,2.14 0.06,3.2 0.05,12.06 1.83,24.09 5.3,35.6 3.84,12.28 9.74,23.85 17.44,34.1 10.2,13.32 21.65,25.83 34.08,37.15 14.14,13.12 32.07,28.26 53.81,45.44l25.78 19.7c23.28,18.15 45.3,37.95 65.87,59.13 15.49,15.81 29.29,33.43 40.95,52.27 9.48,15.4 16.41,32.34 20.47,49.98 3.5,16.69 5.31,33.73 5.31,50.8 0,0.48 0,1.03 0,1.49 0.37,5.39 0.63,10.88 0.63,16.3 0,5.41 -0.26,10.91 -0.66,16.3 -2.46,13.74 -6.56,27.29 -12.09,40.15 -6.13,14.78 -14.06,28.81 -23.51,41.67 -10.65,14.46 -23.8,27.06 -38.63,37.11 -19.33,13.9 -41.27,23.94 -64.44,29.53 -25.05,6.56 -50.86,9.88 -76.74,9.88 -1.41,0 -2.96,-0.03 -4.33,-0.03l0.03 0.06z"/>
     <path class="fil2" d="M13573.52 2854.7l0 384.92c0,43.44 0,82.33 0,116.67 0,1.78 0,3.84 0,5.64 0,24.92 1.34,49.92 3.86,74.66 0.75,11.51 3.58,22.82 8.28,33.36 5.44,10 15.84,16.38 27.26,16.64l21.97 0 18.96 0.03c5.04,0 7.58,1.78 7.58,5.3 0,4.56 -4.55,7.58 -14.4,7.58l-200.81 0c-9.85,0 -14.41,0 -14.41,-7.58 0,-7.59 0,-5.3 7.59,-5.3l13.63 0 13.63 0c8.97,-1.61 16.3,-8.05 18.99,-16.67 3.61,-10.78 6.19,-21.99 7.59,-33.31 2.43,-24.79 3.78,-49.79 3.78,-74.71 0,-1.81 0,-3.87 0,-5.64 -0.03,-34.34 -0.03,-73.22 -0.03,-116.67l0 -384.92 -134.88 0 -35.62 0 -25.78 5.3c-6.44,1.69 -12.62,4.53 -18.12,8.33 -5.04,3.81 -9.39,8.42 -12.89,13.66l-10.59 17.44 -5.3 10.6c-0.03,6.04 -3.07,9.08 -9.14,9.08 -6.07,0 -4.55,0 -4.55,-8.33 -0.14,-2.87 -0.26,-5.82 -0.26,-8.71 0,-2.89 0.11,-5.84 0.28,-8.7 0,-9.1 3.79,-19.7 6.08,-30.3l6.81 -30.31c0,-9.1 0,-14.4 3.79,-16.67l3.78 -10.59c0,-4.56 0,-6.08 5.3,-6.08 4.59,0.54 8.97,2.09 12.89,4.5 8.38,3.61 17.38,5.71 26.52,6.08l41.67 0 30.3 0 341 0 37.89 0 26.52 0 16.67 0 9.1 0 3.78 0c-2.51,6.56 -3.81,15.15 -3.81,25.77 0,10.6 0,20.45 0,31.08 0,10.62 0,19.7 0,28.04 0,8.33 0,13.63 0,15.92 0,2.3 0,12.12 -6.07,12.12 -0.81,0.43 -1.72,0.69 -2.64,0.69 -0.91,0 -1.84,-0.26 -2.67,-0.72 -0.29,-2.14 -0.45,-4.3 -0.45,-6.44 0,-2.14 0.16,-4.3 0.45,-6.44l0 -9.85c-0.56,-6.64 -2.63,-13.15 -6.03,-18.92 -4.56,-3.21 -9.71,-5.53 -15.16,-6.81 -10.56,-5.05 -21.82,-8.62 -33.36,-10.63 -17.69,-3.09 -35.8,-4.9 -53.78,-5.3l-115.18 -3.78z"/>
     <path class="fil2" d="M14043.32 3078.99l0 159.88c0,43.44 0,82.34 0,116.68 -0.03,1.74 -0.03,3.81 -0.03,5.61 0,24.91 1.34,49.91 3.86,74.65 0.81,11.51 3.64,22.82 8.28,33.39 5.44,10 15.84,16.38 27.26,16.64l21.97 0 18.96 0.03c4.56,0 7.59,0 7.59,5.3 0,5.31 -4.56,7.59 -14.41,7.59l-200.78 0c-9.85,0 -14.41,0 -14.41,-7.59 0,-7.58 0,-5.3 7.59,-5.3l13.63 0 13.63 0c9.02,-1.46 16.41,-7.96 18.97,-16.7 3.63,-10.8 6.18,-22.02 7.52,-33.33 2.56,-25 3.84,-50.37 3.84,-75.57 0,-1.57 0,-3.12 0,-4.7 -0.02,-34.36 -0.02,-73.28 -0.02,-116.73l0 -303.07c0,-13.64 0,-24.49 0,-32.59 0,-8.33 0,-15.92 0,-23.48 0,-29.81 -10.34,-46.71 -31.08,-50.78l-15.15 0 -12.89 0c-4.56,0 -7.58,0 -7.58,-5.3 0,-5.3 4.55,-7.58 14.4,-7.58l181.11 0.02c9.85,0 14.41,0 14.41,7.59 0,7.58 0,5.3 -7.59,5.3l-9.85 -0.03 -15.89 0c-10.31,1.21 -20.1,6.76 -25,15.93 -5.79,10.83 -8.19,23.31 -8.33,35.62 -0.09,7.56 0,15.15 0,23.48 0,8.33 0,18.93 0,32.59l0 142.45 0 0z"/>
     <path class="fil2" d="M14290.32 3141.1c0.11,85.84 32.95,168.51 91.67,231.12 29.27,31.81 64.6,57.65 103.81,75.77 40.87,18.47 85.29,28.01 130.16,28.01 1.04,0 2.16,0 3.21,0 2.32,0 4.72,0.06 7.1,0.06 28.38,0 56.78,-2.83 84.6,-8.39 25.43,-5.33 48.74,-18.3 66.67,-37.11 10.43,-11.34 18.44,-24.77 23.48,-39.38 4.7,-12 8.28,-24.46 10.6,-37.14 0,-9.08 3.04,-13.64 9.1,-13.64 0.06,0 0.11,0 0.21,0 2.35,0 4.4,1.55 5.07,3.79 0.29,1.63 0.43,3.29 0.43,4.93 0,1.63 -0.14,3.29 -0.41,4.93 -0.26,1.63 0,7.58 0,16.67 0,9.07 0,20.44 -4.55,32.58 -4.56,12.15 -3.79,24.26 -6.08,37.12 -2.29,12.86 -4.55,22.74 -7.58,30.3 -1.72,5.84 -4.27,11.48 -7.53,16.64 -4.56,4.41 -10,7.79 -15.93,9.88 -10.54,4.16 -21.53,7.45 -32.58,9.82l-40.93 6.08 -44.7 0 -44.7 0 -19.7 0.03 -13.63 12.11 -15.15 14.41 -12.89 12.88 -8.33 8.33c23.51,1.5 46.37,8.51 66.7,20.42 15,9.05 24.23,25.32 24.23,42.87 0,0.35 0,0.75 0,1.09 0.03,0.06 0.03,0.14 0.03,0.21 0,8.62 -2.09,17.16 -6.08,24.8 -4.03,7.76 -9.16,14.91 -15.18,21.21 -6.1,6.36 -13,11.98 -20.44,16.7 -7.39,4.81 -15.27,8.88 -23.48,12.09 -12.12,5.41 -24.87,9.5 -37.86,12.14 -10.75,2.29 -21.69,3.61 -32.63,3.78 -7.58,0 -12.11,0 -12.11,-7.58 -0.03,-0.29 -0.06,-0.57 -0.06,-0.89 0,-3.2 2.24,-5.98 5.36,-6.67l12.89 0c16.55,-1.46 32.5,-7.21 46.19,-16.67 6.13,-4.46 11.31,-10.14 15.18,-16.67 3.95,-6.53 6.04,-14.03 6.04,-21.65 0,-0.11 0,-0.23 0,-0.31 -0.12,-13.46 -4.64,-26.52 -12.89,-37.15 -14.23,-14.83 -32.82,-24.89 -53.01,-28.78 -9.11,0 -13.64,-5.3 -13.64,-8.33 0,-3.04 3.79,-6.81 12.12,-12.89l53.81 -44.7c-47.71,-2.29 -94.91,-12.37 -139.44,-29.53 -38.63,-15.63 -74.37,-38.03 -105.29,-65.92 -20.68,-18.73 -38.78,-40.18 -53.82,-63.64 -13.66,-21.39 -24.86,-44.36 -33.38,-68.22 -8.08,-22.57 -13.98,-45.97 -17.42,-69.7 -3.29,-22.28 -5.13,-44.88 -5.3,-67.42 0.26,-17.75 1.8,-35.54 4.58,-53.07 3.29,-21.59 8.68,-43.04 15.9,-63.63 8.08,-23.45 18.52,-46.05 31.04,-67.42 13.83,-23.51 30.7,-45.22 50.03,-64.46 14.2,-13.92 29.75,-26.69 46.22,-37.86 18.59,-12.72 38.74,-23.17 59.85,-31.08 24.51,-9.02 50.03,-15.92 75.77,-20.42 29.53,-5.12 59.51,-7.65 89.5,-7.65 1.68,0 3.55,0 5.23,0l62.89 0c23.03,1.32 46.22,4.24 68.93,8.36l48.48 8.33 43.97 5.31c1.6,-0.49 3.26,-0.72 4.93,-0.72 1.65,0 3.31,0.23 4.93,0.72 0.45,1.11 0.69,2.26 0.69,3.43 0,1.18 -0.24,2.32 -0.67,3.41 0.14,2.64 0.24,5.33 0.24,7.96 0,2.64 -0.09,5.33 -0.24,7.96 0,6.81 0,18.92 0,34.85 0,15.92 0,15.92 0,25 0,9.08 0,18.93 0,28.04 0,9.1 0,17.44 0,24.26 0,6.81 0,12.88 0,16.67 0,3.78 0,18.92 -8.33,18.92 -8.33,0 -7.58,-6.07 -7.58,-18.92 -0.06,-17.64 -3.41,-35.14 -9.88,-51.53 -5.79,-15.77 -15.44,-29.83 -28.04,-40.92 -22.39,-17.27 -48.29,-29.73 -75.77,-36.4 -33.57,-10.08 -68.6,-15.21 -103.67,-15.21 -1.78,0 -3.69,0.06 -5.44,0.06 -0.35,0 -0.8,0 -1.2,0 -24.95,0 -49.92,2.09 -74.55,6.08 -19.85,3.15 -39.44,8.3 -58.33,15.15 -14.92,5.36 -29.19,12.51 -42.45,21.22 -10.25,6.93 -19.93,14.8 -28.81,23.48 -31.41,29.13 -54.27,66.35 -65.93,107.56 -14.06,43.41 -22.36,88.61 -24.25,134.16l0.03 -0.03z"/>
     <path class="fil2" d="M14928.31 3404.8l206.11 -564.48c3.39,-9.85 7.45,-19.5 12.09,-28.81 0,-4.56 5.3,-6.08 8.33,-6.08 3.73,0.29 6.96,2.64 8.36,6.08 4.64,8.53 8.67,17.41 12.11,26.52l16.67 43.19 31.81 83.33 41.68 108.36 44.7 116.71 42.44 109.85 34.1 86.37c6.48,16.95 14.38,33.54 23.51,49.23 6.08,10.7 13.26,20.94 21.19,30.33 5.13,6.1 11.29,11.2 18.22,15.12l15.93 6.08c6.27,2.4 12.91,3.95 19.64,4.58l16.7 0c6.07,0 9.07,1.78 9.07,5.31 0,3.52 0,5.3 -5.3,6.07l-12.89 0 -96.22 0 -46.96 0 -19.7 0c-4.56,0 -7.58,0 -7.58,-5.3 0,-5.3 0,-5.3 6.07,-6.08 3.44,-1.43 6.16,-4.15 7.56,-7.61 1.15,-2.64 1.71,-5.47 1.71,-8.33 0,-2.83 -0.56,-5.66 -1.71,-8.3l-84.85 -227.33c-1.49,-3.21 -4.73,-5.3 -8.28,-5.3 -0.03,0 -0.05,0 -0.05,0l-195.48 0.02c-0.06,-0.02 -0.11,-0.02 -0.14,-0.02 -4.44,0 -8.25,3.2 -8.99,7.58l-56.04 162.92c-7.59,19.33 -11.95,39.84 -12.86,60.6 -0.03,0.32 -0.03,0.63 -0.03,0.91 0,7.88 4.38,15.13 11.4,18.79 7.04,3.95 15,6.04 23.08,6.04 0.14,0 0.26,0 0.4,0l9.07 0.02c6.08,0 9.11,1.78 9.11,5.31 0,4.55 -4.56,7.58 -13.64,7.58l-172.02 0c-11.6,0 -17.42,-2.51 -17.42,-7.58 0,-5.07 0,-5.31 8.33,-5.31l9.08 0 13.63 0c19.27,-1.92 36.72,-12.17 47.74,-28.03 12.51,-18.04 22.76,-37.75 30.3,-58.37l0.03 0.03zm127.3 -200.81l173.51 0c0,0 4.56,0 0,-6.07l-82.58 -247.75c-4.56,-13.63 -9.11,-13.63 -13.64,0l-80.33 245.51c-1.52,3.78 -0.75,6.04 3.04,6.04l0 2.26z"/>
     <path class="fil2" d="M15853.46 3238.85l0 -303.07c0,-13.64 0,-24.49 0,-32.59 0,-8.33 0,-15.92 0,-23.48 -0.32,-12.4 -3.44,-24.57 -9.08,-35.6 -7.33,-9.56 -18.33,-15.61 -30.3,-16.7l-15.15 0 -15.93 0.03c-5.04,0 -7.58,-1.78 -7.58,-5.33 0,-4.56 4.56,-7.58 14.4,-7.58l326.59 0.02 23.48 0 16.67 0 7.59 0 5.3 0c0,0 5.3,0 5.3,8.34 0.29,2.37 0.43,4.78 0.43,7.18 0,2.4 -0.14,4.81 -0.43,7.18 -2.29,9.48 -3.84,19.16 -4.55,28.84 -0.72,9.69 0,6.08 0,12.12 0,6.04 0,11.37 0,17.44 0,6.08 0,12.12 0,18.19 0.16,1.98 0.26,4.01 0.26,6.01 0,2 -0.09,4.04 -0.23,6.08l0 6.81c-0.86,0.45 -1.78,0.72 -2.7,0.72 -0.91,0 -1.83,-0.27 -2.66,-0.72 -4.56,0 -6.08,0 -6.08,-10.6 0.23,-2.51 0.35,-5.07 0.35,-7.58 0,-2.52 -0.12,-5.07 -0.29,-7.59 -1.21,-6.53 -3.24,-12.91 -6.11,-18.92 -4.75,-7.93 -11.57,-14.49 -19.67,-18.93 -12.62,-6.96 -26.86,-10.62 -41.3,-10.62 -0.11,0 -0.26,0 -0.4,0l-140.18 0c-5.3,0 -8.33,0 -8.33,9.85l0 251.56c0,5.3 0,8.33 6.07,8.33l157.62 0 25.78 -4.56c6.56,-2 12.19,-6.3 15.89,-12.11l5.31 -6.08c0.85,-0.34 1.74,-0.51 2.66,-0.51 0.91,0 1.81,0.17 2.67,0.54 0.85,0.37 4.55,0 4.55,7.58 0.21,2.61 0.35,5.28 0.35,7.93 0,2.67 -0.14,5.33 -0.37,7.96 -2.3,11.2 -3.84,22.68 -4.56,34.11 0,4.55 0,10.59 0,16.67l0 34.85c0,5.04 0,8.33 0,9.85 0.17,2 0.26,4.03 0.26,6.03 0,2.01 -0.08,4.04 -0.23,6.08 -0.14,2.03 0,5.3 -5.31,5.3 -5.3,0 -6.07,0 -6.07,-8.33 0,-8.33 0,-9.85 0,-15.92 0.32,-2.75 0.46,-5.53 0.46,-8.31 0,-2.77 -0.14,-5.55 -0.46,-8.33 -3.36,-7.76 -8.59,-14.51 -15.18,-19.72 -9.28,-7.45 -20.65,-11.98 -32.56,-12.86l-28.78 0 -108.39 0c-4.56,0 -6.08,0 -6.08,8.33l0 75.77c0.03,43.45 0.03,82.34 0.03,116.68 -0.03,1.74 -0.03,3.81 -0.03,5.61 0,24.92 1.34,49.92 3.87,74.66 0.83,11.5 3.66,22.82 8.3,33.36 5.41,10.02 15.8,16.41 27.24,16.67l21.96 0 18.96 0.02c4.56,0 7.59,0 7.59,5.31 0,5.3 -4.56,7.58 -14.41,7.58l-229.41 0c-9.85,0 -14.41,0 -14.41,-7.58 0,-7.59 0,-5.31 7.59,-5.31l13.63 0 13.63 0c31.24,-19.47 31.38,-216.64 32.42,-260.66z"/>
     <path class="fil2" d="M16865.01 3238.85l0 -303.07c0,-13.64 0,-24.49 0,-32.59 0,-8.33 0,-15.92 0,-23.48 -0.32,-12.4 -3.44,-24.57 -9.08,-35.6 -7.33,-9.56 -18.33,-15.61 -30.3,-16.7l-15.15 0 -15.93 0.03c-5.07,0 -7.58,-1.78 -7.58,-5.33 0,-4.56 4.55,-7.58 14.4,-7.58l303.08 0.02c32.25,0.46 64.55,3.87 96.22,9.83 34.05,6.18 67.53,16.43 99.29,30.33 33.78,14.89 64.46,36.31 90.12,62.89 12.12,12.74 23.32,26.54 33.36,40.95 11.08,16.09 20.54,33.45 28.07,51.52 8.56,20.19 15.21,41.33 19.64,62.83 5.04,24.32 7.59,49.15 7.59,73.97 0,0.57 0,1.26 0,1.84 0,0.48 0,1.01 0,1.46 0,26.72 -2.81,53.47 -8.33,79.59 -5.05,24.09 -12.49,47.77 -21.97,70.47 -8.38,20.39 -18.87,40.01 -31.01,58.36 -20.39,30.93 -46.08,58.2 -75.77,80.31 -17.64,13.37 -36.77,24.89 -56.88,34.08 -24.23,11.34 -49.72,20.25 -75.75,26.49 -32.08,7.07 -64.95,10.68 -97.8,10.68 -1.71,0 -3.6,-0.06 -5.26,-0.06l-62.89 0 -62.89 0 -50.78 0 -24.25 0 -89.38 0.03c-9.85,0 -14.41,0 -14.41,-7.59 0,-7.58 0,-5.3 7.59,-5.3l13.63 0.03 13.63 0c9.02,-1.46 16.41,-7.96 18.96,-16.73 3.64,-10.77 6.19,-21.99 7.53,-33.3 2.56,-25 3.84,-50.37 3.84,-75.57 0,-1.58 0,-3.12 0,-4.7 -1.03,-41.44 -1.54,-84.13 -1.54,-128.1zm75.77 -174.26l0 181.85c0,21.71 0,41.41 0,59.1 0,17.67 0,32.56 0,44.7 0,12.12 0,20.2 0,24.23 0,5.3 0,11.37 0,18.93l0 20.44c-0.16,3.07 -0.29,6.1 -0.29,9.13 0,3.04 0.12,6.08 0.32,9.08 0.66,4.32 2.21,8.45 4.53,12.14 3.98,5.1 8.88,9.48 14.41,12.86 8.45,5.3 17.66,9.39 27.26,12.14 14.84,4.04 30.13,6.88 45.47,8.28 11.11,0.56 22.49,0.94 33.71,0.94 11.23,0 22.6,-0.38 33.73,-0.94 0.61,0.02 1.29,0.02 1.92,0.02 40.26,0 80.21,-7.41 117.78,-21.93 36.37,-13.95 69.42,-35.43 97,-62.89 12.22,-12.38 22.71,-26.44 31.04,-41.7 9.42,-16.89 17.35,-34.68 23.48,-53.01 6.53,-19.48 11.42,-39.58 14.4,-59.88 2.99,-20.62 4.56,-41.55 4.56,-62.41 0,-0.16 0,-0.31 0,-0.48 0,-25.49 -2.83,-50.97 -8.33,-75.78 -4.81,-22.17 -12,-43.76 -21.22,-64.41 -7.87,-17.55 -17.58,-34.36 -28.78,-50 -8.8,-12.4 -18.53,-24.43 -28.81,-35.62 -19.7,-21.05 -42.51,-39.26 -67.45,-53.79 -23.8,-13.42 -49.34,-23.91 -75.75,-31.04 -24.68,-7.38 -50.14,-12.25 -75.78,-14.43 -26.25,0 -53.03,0 -80.33,0l-15.9 0 -10.37 -0.26 -15.92 0 -9.85 0c-6.51,2.69 -10.75,9.05 -10.75,16.09 0,0.69 0.12,1.47 0.12,2.09 0,8.05 0.02,19.21 0.02,33.33 0,14.15 0,30.33 0,48.51l-0.26 114.66z"/>
     <path class="fil2" d="M17648.48 3238.85l0 -303.07c0,-13.64 0,-24.49 0,-32.59 0,-8.33 0,-15.92 0,-23.48 -0.32,-12.4 -3.44,-24.57 -9.08,-35.6 -7.33,-9.56 -18.33,-15.61 -30.3,-16.7l-15.15 0 -15.93 0.03c-5.07,0 -7.58,-1.78 -7.58,-5.33 0,-4.56 4.55,-7.58 14.4,-7.58l65.16 0.02 37.11 0 208.4 0c13.14,-0.66 26.4,-2.2 39.38,-4.58l6.07 0 6.08 0c0,0 0,0 0,8.33 0.31,2.4 0.45,4.81 0.45,7.21 0,2.41 -0.14,4.81 -0.45,7.19 -2.32,9.45 -3.9,19.13 -4.56,28.81 -0.66,9.68 0,6.07 0,12.11 0,6.04 0,11.37 0,17.45 0,6.07 0,12.11 0,18.19 0.14,2.03 0.23,4.03 0.23,6.07 0,2.03 -0.08,4.04 -0.23,6.08l0 6.81c-0.57,0.26 -1.23,0.4 -1.89,0.4 -0.66,0 -1.29,-0.14 -1.89,-0.4 -4.56,0 -7.59,-3.78 -7.59,-12.11 0,-8.33 0,-7.59 0,-14.41 -0.51,-6.24 -2.06,-12.43 -4.55,-18.19 -3.47,-7.9 -9.31,-14.52 -16.68,-18.96 -15.23,-7.13 -31.7,-11.29 -48.48,-12.14l-24.25 0 -100.01 0.02c0,0 -5.3,0 -5.3,9.11l0 250.81c0,6.07 0,9.1 5.3,9.1l114.41 -0.05 30.31 0 26.52 0c6.43,-0.97 12.34,-4.22 16.67,-9.08 6.81,-7.58 11.36,-12.11 13.63,-12.11 2.26,0 4.56,0 4.56,7.58 0.28,2.72 0.42,5.53 0.42,8.3 0,2.78 -0.14,5.58 -0.4,8.33 -2.26,11.48 -3.84,23.2 -4.53,34.88 0,4.56 0,9.85 0,15.93 0,6.07 0,11.37 0,17.44l0 15.15c-0.02,4.53 -0.02,7.79 -0.02,9.82 0.11,1.87 0.19,3.79 0.19,5.68 0,1.89 -0.08,3.81 -0.19,5.66 0,3.79 0,6.08 -5.31,6.08 -5.3,0 -6.07,0 -6.07,-8.33 0,-8.33 0,-9.85 0,-14.41 0.26,-2.61 0.4,-5.26 0.4,-7.93 0,-2.66 -0.14,-5.33 -0.4,-7.95 -2.35,-7.48 -6.53,-14.27 -12.14,-19.7 -10.09,-7.88 -22.54,-12.14 -35.34,-12.14 -0.08,0 -0.17,0 -0.26,0l-28.78 0 -40.16 0 -61.39 0c-0.27,-0.03 -0.52,-0.06 -0.81,-0.06 -2.91,0 -5.3,2.38 -5.3,5.3 0,0.29 0.03,0.54 0.06,0.83l0 234.89c0.31,12.75 2.11,25.54 5.3,37.91 2.26,9.08 7.61,17.16 15.18,22.71 9.34,5.93 19.99,9.56 31.04,10.57 8.94,0.54 17.93,0.89 26.89,0.89 8.97,0 17.96,-0.35 26.87,-0.89l43.95 0c15,-0.37 29.9,-3.18 43.99,-8.3 11.26,-4.09 20.85,-11.83 27.27,-21.97 7.18,-13.42 11.82,-28.09 13.63,-43.21 0,-9.08 2.78,-13.61 8.33,-13.61 0.26,-0.05 0.51,-0.08 0.77,-0.08 2.52,0 4.56,2.03 4.56,4.55 0,0.03 0,0.06 0,0.06 0,0 0,6.08 0,9.1 0,3.04 0,6.82 0,14.41l0 25.77 0 28.04c0.11,3.44 0.23,7.05 0.23,10.57 0,3.52 -0.11,7.13 -0.26,10.62 -1.23,4.7 -3.03,9.28 -5.3,13.61 -1.95,3.15 -4.86,5.52 -8.33,6.81 -2.24,0.37 -4.53,0.57 -6.81,0.57 -2.29,0 -4.56,-0.21 -6.81,-0.57l-141.71 0.03 -64.4 0 -43.97 0 -116.67 0c-9.85,0 -14.41,0 -14.41,-7.59 0,-7.58 0,-5.3 7.59,-5.3l13.63 0.03 13.63 0c9.02,-1.47 16.41,-7.96 18.96,-16.73 3.67,-10.77 6.22,-21.99 7.56,-33.3 2.56,-25 3.84,-50.38 3.84,-75.57 0,-1.58 0,-3.12 0,-4.7 0.49,-43.47 0.72,-87.17 0.72,-131.14z"/>
     <path class="fil2" d="M18162.21 3238.85l0 -303.07c0,-13.64 0,-24.49 0,-32.59 0,-8.33 0,-15.92 0,-23.48 -0.31,-12.4 -3.43,-24.57 -9.07,-35.6 -7.36,-9.56 -18.36,-15.61 -30.33,-16.7l-15.15 0 -15.93 0.03c-5.04,0 -7.56,-1.78 -7.56,-5.33 0,-4.56 4.56,-7.58 14.41,-7.58l209.86 0.02c0.11,0 0.31,0 0.37,0 29.01,0 58.19,2.38 86.8,6.85 27.46,5.13 53.44,16.53 75.75,33.31 6.73,5.33 13.08,11.2 18.96,17.44 7.71,8.08 14.6,16.98 20.45,26.49 6.83,11.2 12.45,23.22 16.67,35.66 4.5,13.68 6.81,28.03 6.81,42.47 0,0.48 0,0.97 0,1.46 -0.24,35.49 -8.57,70.48 -24.23,102.3 -21.62,40.8 -50.75,77.38 -85.65,107.56l103.04 131.07c30.84,39.41 59.63,73.29 86.4,101.55 18.15,21.02 40.35,38.29 65.15,50.78 14.55,6.47 29.87,11.34 45.5,14.37l21.96 0 13.64 0.03c5.55,0 8.33,1.78 8.33,5.3 0,0.03 0,0.12 0,0.17 0,2.78 -1.87,5.18 -4.56,5.87l-17.44 0 -64.41 0.03c-9.77,0.69 -19.7,1.15 -29.53,1.15 -9.82,0 -19.77,-0.46 -29.56,-1.21 -13.34,-2.23 -26.2,-6.87 -37.92,-13.63 -21.61,-12.25 -40.74,-28.78 -56.04,-48.45 -18.18,-22.23 -40.4,-50.52 -66.67,-84.86l-28.78 -39.4 -28.04 -37.89 -24.26 -33.33 -17.44 -24.26c-3.15,-3.35 -7.53,-5.26 -12.11,-5.3l-112.15 0c-4.56,0 -6.08,0 -6.08,7.58l0 21.97c0,43.44 0,82.33 0,116.67 -0.02,1.89 -0.02,3.95 -0.02,5.82 0,24.89 1.34,49.86 3.84,74.54 0.85,11.46 3.69,22.77 8.33,33.33 5.44,9.98 15.84,16.36 27.26,16.62l21.96 0 18.97 0.03c4.55,0 7.58,0 7.58,5.3 0,5.3 -4.55,7.58 -14.4,7.58l-112.15 0 -32.59 0 -53.04 0c-9.84,0 -14.4,0 -14.4,-7.58 0,-7.59 0,-5.3 7.58,-5.3l13.64 0 13.63 0c9.02,-1.44 16.41,-7.93 18.96,-16.67 3.66,-10.8 6.22,-22.02 7.56,-33.33 2.55,-25.03 3.84,-50.41 3.84,-75.61 0,-1.58 0,-3.13 0,-4.7 1.49,-34.37 2.23,-73.51 2.23,-117.48zm75.78 -378.85l0 297.03c0,0.03 0,0.08 0,0.11 0,4.32 2.32,8.33 6.08,10.48 11.85,5.85 24.71,9.45 37.89,10.6 18.01,2.51 36.34,3.81 54.58,3.81 0.97,0 2.03,0 2.98,0 5.79,0.48 11.63,0.75 17.45,0.75 5.81,0 11.66,-0.27 17.44,-0.75 12,-2.29 23.4,-7.21 33.31,-14.41 17.66,-13.45 31.3,-31.61 39.4,-52.29 10.57,-25.91 16.01,-53.69 16.01,-81.7 0,-2.03 -0.03,-4.16 -0.08,-6.16 0.19,-3.87 0.34,-7.85 0.34,-11.74 0,-44.08 -14.8,-86.95 -42.01,-121.63 -27.44,-30.95 -66.9,-48.68 -108.25,-48.68 -2.3,0 -4.64,0.05 -6.94,0.16l-37.11 0 -23.48 0c-0.38,0 -0.72,-0.02 -1.07,-0.02 -7.76,0.26 -6.7,9.59 -6.53,14.43z"/>
     <path class="fil2" d="M18735.8 3404.8l206.11 -564.48c3.41,-9.85 7.48,-19.5 12.12,-28.81 0,-4.56 5.3,-6.08 8.33,-6.08 3.69,0.29 6.93,2.64 8.33,6.08 4.64,8.53 8.67,17.41 12.11,26.52l16.67 43.19 31.81 83.33 41.68 108.36 44.7 116.71 42.44 109.85 34.11 86.37c6.47,16.95 14.37,33.54 23.51,49.23 6.07,10.7 13.26,20.94 21.19,30.33 5.12,6.1 11.28,11.2 18.21,15.12l15.93 6.08c6.27,2.4 12.91,3.95 19.64,4.58l14.43 0c6.04,0 9.08,1.78 9.08,5.31 0,3.52 0,5.3 -5.3,6.07l-12.89 0 -96.22 0 -46.96 0 -19.7 0c-4.56,0 -7.59,0 -7.59,-5.3 0,-5.3 0,-5.3 6.08,-6.08 3.44,-1.43 6.16,-4.15 7.56,-7.61 1.14,-2.64 1.71,-5.47 1.71,-8.33 0,-2.83 -0.57,-5.66 -1.71,-8.3l-84.86 -227.33c-1.49,-3.21 -4.72,-5.3 -8.27,-5.3 -0.03,0 -0.06,0 -0.06,0l-195.48 0.02c-0.05,-0.02 -0.11,-0.02 -0.13,-0.02 -4.44,0 -8.25,3.2 -9,7.58l-53.75 162.92c-7.63,19.33 -11.98,39.84 -12.89,60.6 -0.03,0.32 -0.03,0.63 -0.03,0.91 0,7.88 4.38,15.13 11.4,18.79 7.04,3.95 15,6.04 23.08,6.04 0.14,0 0.26,0 0.4,0l9.07 0.02c6.08,0 9.11,1.78 9.11,5.31 0,4.55 -4.56,7.58 -13.63,7.58l-173.52 0c-11.63,0 -17.44,-2.51 -17.44,-7.58 0,-5.07 0,-5.31 8.33,-5.31l12.88 0 13.64 0c19.27,-1.92 36.71,-12.17 47.73,-28.03 11.72,-18.19 21.16,-37.84 28.01,-58.34l0.03 0zm300.82 -200.81c0,0 4.55,0 0,-6.07l-82.59 -247.75c-4.56,-13.63 -9.11,-13.63 -13.64,0l-80.33 245.51c-1.52,3.78 0,8.3 3.04,8.3l173.52 0z"/>
     <path class="fil2" d="M19483.65 3241.14c0,66.67 0,117.18 0,151.52 -0.08,1.46 -0.11,2.98 -0.11,4.44 0,19.72 5.84,39.03 16.78,55.44 3.81,3.9 8.16,7.21 12.92,9.82 6.18,3.01 12.86,5.04 19.67,6.11l31.07 0 44.7 0c10.78,0.6 21.77,0.96 32.59,0.96 10.83,0 21.82,-0.37 32.59,-1.03 17.37,-1.6 33.45,-10.08 44.69,-23.45 6.36,-7.99 11.48,-16.95 15.16,-26.52 3.84,-8.97 6.67,-18.42 8.33,-28.04 0,-7.59 3.78,-12.12 8.33,-12.12 4.55,0 5.3,4.56 5.3,13.64 0,9.07 0,7.58 0,14.4 0,6.81 0,15.15 0,24.26l-4.56 28.04c-1.31,8.16 -3.09,16.24 -5.26,24.2 -1.55,4.4 -3.33,8.73 -5.33,12.88 -1.63,3.26 -4.3,5.93 -7.59,7.56 -2.63,0.46 -5.3,0.69 -7.95,0.69 -2.67,0 -5.33,-0.23 -7.96,-0.69l-114.41 0.03 -65.16 0 -50.77 0 -75.78 0 -28.04 0 -24.22 0c-9.85,0 -14.41,0 -14.41,-7.59 0,-7.58 0,-5.3 7.58,-5.3l13.64 0.03 13.63 0c9.02,-1.46 16.41,-7.96 18.96,-16.73 3.66,-10.77 6.22,-21.99 7.56,-33.3 2.52,-25 3.81,-50.38 3.81,-75.57 0,-1.58 0,-3.12 0,-4.7 0,-34.36 -0.03,-73.29 -0.03,-116.73l0 -303.08c0,-13.63 0,-24.51 0,-32.58 0,-8.33 0,-15.93 0,-23.48 -0.31,-12.41 -3.44,-24.58 -9.07,-35.6 -7.34,-9.56 -18.33,-15.61 -30.31,-16.7l-15.15 0 -15.92 0c-5.07,0 -7.59,-1.74 -7.59,-5.3 0,-4.56 4.56,-7.59 14.41,-7.59l200.78 0c9.85,0 14.41,0 14.41,7.59 0,7.58 0,5.3 -7.59,5.3l-18.92 0 -16.67 0c-10.8,1.01 -20.6,6.88 -26.55,15.93 -5.18,11.13 -8.05,23.31 -8.3,35.62 0,7.58 0,15.15 0,23.48 0,8.33 0,18.93 0,32.59l0 139.41 0.74 162.15z"/>
     <path class="fil2" d="M11865.63 4034.47l12.11 435.69c0,18.93 0,34.11 0,46.97 0.95,10.45 3.01,20.91 6.08,31.01 2.03,7.04 5.68,13.55 10.62,18.92 4.19,4.3 9.4,7.45 15.15,9.14 8.39,2.34 17.08,3.89 25.78,4.52l21.96 0.03c4.56,0 7.59,0 7.59,5.3 0,5.31 -5.31,7.59 -16.67,7.59l-64.41 0 -31.81 0 -31.08 0 -56.08 0c-9.85,0 -14.4,0 -14.4,-7.59 0,-7.58 0,-5.3 7.58,-5.3l16.64 0c7.25,-0.57 14.38,-2.11 21.22,-4.55 12.38,-4.44 20.97,-15.72 21.96,-28.82 3.67,-24.31 5.5,-49.06 5.5,-73.71 0,-4.22 -0.11,-8.48 -0.17,-12.63l0 -522.07c-0.6,-5.92 -0.91,-11.91 -0.91,-17.84 0,-5.93 0.32,-11.91 0.89,-17.82 0,-6.07 3.78,-9.85 7.58,-9.85 3.81,0 8.33,0 15.15,10.6l16.67 18.19 31.08 34.1 65.93 71.22 89.41 96.22 106.07 114.47 67.44 75.77 64.41 69.7 53.04 57.59 33.33 35.62 -9.85 -462.21c0.06,-2.21 0.11,-4.46 0.11,-6.67 0,-19.02 -2.61,-37.97 -7.68,-56.28 -4.69,-12.08 -15.29,-20.96 -28.03,-23.45l-25.78 0 -18.92 0c-4.56,0 -7.59,0 -7.59,-6.08 0,-6.07 6.08,-6.07 18.19,-6.07l94.73 0.03 28.04 0 49.26 0c10.59,0 16.67,0 16.67,6.07 0,6.08 0,6.08 -9.85,6.08l-8.36 -0.03 -12.89 0c-12.77,1.29 -23.71,9.85 -28.01,21.96 -3.66,15.96 -5.52,32.37 -5.52,48.75 0,3.2 0.08,6.41 0.19,9.6l0 530.4c0,15.18 0,27.06 0,35.63 0,8.59 0,14.91 0,18.96 0.26,1.31 0.4,2.72 0.4,4.13 0,1.4 -0.14,2.8 -0.4,4.15 -0.57,0.32 -1.23,0.46 -1.89,0.46 -0.66,0 -1.29,-0.14 -1.89,-0.4l-6.81 0 -11.37 -8.33 -18.93 -17.44 -29.56 -29.56 -28.03 -28.04 -58.34 -59.85 -75.77 -75.78 -75.78 -81.08 -75.78 -84.1 -69.7 -75.78 -55.3 -61.37 -43.22 -46.19z"/>
     <path class="fil2" d="M12597.59 4493.62l206.11 -564.49c3.39,-9.87 7.48,-19.53 12.12,-28.84 0,-4.55 5.3,-6.07 8.33,-6.07 3.69,0.31 6.93,2.66 8.33,6.1 4.64,8.51 8.73,17.42 12.14,26.49l16.67 43.19 31.81 83.34 41.67 108.36 44.7 116.7 38.64 111.43 34.1 86.37c6.48,16.98 14.38,33.48 23.51,49.2 6.11,10.71 13.23,20.91 21.19,30.33 5.1,6.08 11.26,11.2 18.19,15.13l15.93 6.07c6.32,2.35 12.97,3.9 19.67,4.56l18.96 0.06c6.08,0 9.1,0 9.1,5.3 0,5.3 0,5.3 -5.3,6.07l-12.89 0 -96.24 -0.02 -46.97 0 -19.7 0c-4.55,0 -7.58,0 -7.58,-5.31 0,-5.3 0,-5.3 6.07,-6.07 3.47,-1.41 6.19,-4.13 7.59,-7.59 1.12,-2.63 1.69,-5.47 1.69,-8.33 0,-2.86 -0.57,-5.7 -1.72,-8.33l-84.85 -227.33c-1.23,-3.17 -4.32,-5.3 -7.76,-5.3 -0.21,0 -0.38,0 -0.57,0.03l-195.48 0c-0.03,-0.03 -0.08,-0.03 -0.11,-0.03 -4.44,0 -8.25,3.21 -8.99,7.59l-54.56 160.62c-7.59,19.33 -11.95,39.84 -12.86,60.6 -0.03,0.32 -0.03,0.63 -0.03,0.91 0,7.91 4.38,15.16 11.4,18.82 7.04,3.95 15,6.04 23.08,6.04 0.14,0 0.26,0 0.4,0l9.07 0.02c6.08,0 9.11,0 9.11,5.31 0,5.3 -4.56,7.58 -13.63,7.58l-173.52 0c-11.37,0 -17.44,0 -17.44,-7.58 0,-7.59 0,-5.31 8.33,-5.31l12.88 0 13.64 0c19.27,-1.92 36.71,-12.17 47.73,-28.06 11.69,-17.9 21.17,-37.32 28.04,-57.59l0 0.03zm127.3 -200.78l173.52 0c0,0 4.55,0 0,-6.08l-86.38 -245.51c-4.55,-13.63 -9.1,-13.63 -13.63,0l-80.33 245.51c2.26,3.81 3.04,6.08 6.81,6.08z"/>
     <path class="fil2" d="M13523.51 4329.95l0 -303.08c0,-13.63 0,-24.25 0,-32.58 0,-8.33 0,-15.93 0,-23.48 -0.31,-12.44 -3.43,-24.6 -9.07,-35.63 -7.36,-9.56 -18.36,-15.61 -30.33,-16.7l-15.16 0 -15.92 0.06c-4.56,0 -7.59,0 -7.59,-5.3 0,-5.31 4.56,-7.59 14.41,-7.59l103.07 0 49.26 0 65.15 0c3.29,-0.17 6.73,-0.19 10.03,-0.19 22.04,0 44.13,2.08 65.75,6.21 16.75,3.36 33.3,8.22 49.25,14.44 11.06,4.03 21.57,9.68 31.08,16.64l16.67 14.4c12.38,12.66 22.63,27.27 30.3,43.2 9.94,19.44 15.16,41.03 15.16,62.88 0,0.75 -0.03,1.52 -0.03,2.27 0.05,0.83 0.05,1.63 0.05,2.43 0,29.27 -5.7,58.36 -16.67,85.49 -10.65,26 -26.71,49.54 -47.02,68.92 -20.47,19.37 -44.72,34.34 -71.19,43.97 -27.43,10 -56.48,15.18 -85.68,15.18 -1.23,0 -2.55,-0.03 -3.75,-0.03l-18.93 0.03 -6.81 0c-0.57,-0.8 -0.86,-1.74 -0.86,-2.7 0,-0.94 0.29,-1.89 0.86,-2.66 -0.03,-0.23 -0.06,-0.51 -0.06,-0.77 0,-3.1 2.32,-5.68 5.36,-6.04l19.7 0c0.4,0.03 0.8,0.03 1.2,0.03 20.85,0 41.5,-3.87 60.94,-11.37 18.53,-6.96 35.57,-17.56 50.01,-31.08 14,-13.37 25.34,-29.35 33.33,-46.99 7.98,-17.79 12.14,-37.17 12.14,-56.7 0,-0.51 -0.03,-1.12 -0.03,-1.63 0,-7.59 0,-16.67 0,-27.3 -0.97,-12 -3.07,-23.94 -6.08,-35.59 -3.63,-13.64 -8.73,-26.87 -15.12,-39.41 -14.83,-27.81 -37.54,-50.75 -65.18,-65.9 -12.92,-7.98 -27.03,-14.12 -41.67,-18.22 -9.91,-2.4 -20.14,-3.69 -30.33,-3.75l-21.97 0 -23.48 3.81c-5.66,0.48 -11.31,1.78 -16.67,3.76 -4.56,0 -7.58,7.58 -7.58,17.44l0 373.55c0,43.44 0,82.37 0,116.7 -0.03,1.78 -0.03,3.76 -0.03,5.56 0,24.94 1.26,49.97 3.78,74.74 0.91,11.48 3.76,22.79 8.36,33.33 5.47,10.03 15.87,16.41 27.29,16.67l21.97 0 18.96 0.03c4.56,0 7.58,0 7.58,5.3 0,5.3 -4.55,7.59 -14.4,7.59l-200.81 0c-9.85,0 -14.41,0 -14.41,-7.59 0,-7.58 0,-5.3 7.59,-5.3l13.66 0 13.63 0c8.94,-1.6 16.27,-8.05 18.96,-16.7 3.64,-10.8 6.22,-22.05 7.56,-33.36 2.49,-25.03 3.78,-50.54 3.78,-75.8 0,-1.49 0,-3.07 0,-4.53 0,-33.79 0,-72.69 0,-116.65z"/>
     <path class="fil2" d="M13950.1 4493.62l204.59 -564.49c3.38,-9.87 7.47,-19.53 12.11,-28.84 0,-4.55 5.3,-6.07 8.33,-6.07 3.69,0.31 6.93,2.66 8.33,6.1 4.64,8.51 8.73,17.42 12.14,26.49l16.67 43.19 31.82 83.34 41.67 108.36 44.7 116.7 42.44 109.86 34.11 86.37c6.47,17.04 14.38,33.53 23.51,49.25 6.1,10.71 13.23,20.91 21.19,30.33 5.09,6.08 11.25,11.21 18.19,15.13l15.92 6.07c6.33,2.35 12.97,3.9 19.67,4.56l16.67 0.06c6.08,0 9.11,0 9.11,5.3 0,5.3 0,5.3 -5.31,6.07l-12.88 0 -96.25 0 -46.96 0 -19.7 0c-4.56,0 -7.59,0 -7.59,-5.3 0,-5.3 0,-5.3 6.08,-6.07 3.46,-1.44 6.19,-4.16 7.58,-7.63 1.15,-2.63 1.72,-5.47 1.72,-8.33 0,-2.86 -0.57,-5.7 -1.72,-8.33l-84.85 -227.33c-1.26,-3.17 -4.35,-5.3 -7.79,-5.3 -0.21,0 -0.37,0 -0.57,0.03l-195.48 0c-0.02,-0.03 -0.08,-0.03 -0.11,-0.03 -4.43,0 -8.25,3.21 -8.99,7.59l-55.3 162.92c-7.59,19.3 -11.95,39.81 -12.86,60.57 -0.03,0.31 -0.03,0.63 -0.03,0.91 0,7.9 4.38,15.15 11.39,18.81 7.02,3.95 14.98,6.04 23.06,6.04 0.14,0 0.26,0 0.4,0l9.1 0.06c6.08,0 9.11,0 9.11,5.3 0,5.3 -4.56,7.58 -13.64,7.58l-173.54 -0.02c-11.37,0 -17.44,0 -17.44,-7.59 0,-7.58 0,-5.3 8.33,-5.3l12.91 0.03 13.63 0c19.25,-1.92 36.69,-12.17 47.71,-28.07 12.06,-18.12 21.77,-37.78 28.82,-58.36l0 0.03zm128.81 -200.78l173.52 0c0,0 4.55,0 0,-6.08l-86.37 -245.51c-4.56,-13.63 -9.11,-13.63 -13.64,0l-80.33 245.51c0.75,3.81 1.52,6.08 6.81,6.08z"/>
     <path class="fil2" d="M14620.69 4329.95l0 -303.08c0,-13.63 0,-24.25 0,-32.58 0,-8.33 0,-15.93 0,-23.48 -1.04,-12.6 -4.93,-24.8 -11.37,-35.66 -7.34,-9.53 -18.33,-15.58 -30.31,-16.67l-15.15 0 -15.92 0.06c-4.56,0 -7.59,0 -7.59,-5.3 0,-5.31 4.56,-7.59 14.41,-7.59l209.88 0c0,-0.05 0,-0.05 0,-0.05 29.13,0 58.39,2.32 87.09,6.85 37.81,4.72 72.74,22.73 98.54,50.74 7.71,8.11 14.61,17.02 20.45,26.52 6.88,11.23 12.48,23.2 16.7,35.63 4.5,13.71 6.81,28.06 6.81,42.5 0,0.48 0,0.97 0,1.46 -0.26,35.48 -8.59,70.47 -24.26,102.3 -21.59,40.8 -50.72,77.38 -85.62,107.56l103.81 131.88c30.82,39.41 59.6,73.25 86.37,101.55 18.16,20.97 40.35,38.26 65.19,50.72 14.51,6.5 29.8,11.37 45.44,14.41l21.96 0 13.66 0.02c5.31,0 8.33,0 8.33,5.31 0.03,0.26 0.06,0.54 0.06,0.8 0,2.66 -1.98,4.9 -4.61,5.23l-17.45 0 -67.41 0.03c-9.8,0.75 -19.7,1.15 -29.56,1.15 -9.85,0 -19.77,-0.4 -29.56,-1.18 -13.34,-2.23 -26.18,-6.87 -37.89,-13.63 -21.67,-12.28 -40.8,-28.81 -56.1,-48.48 -18.16,-22.23 -40.38,-50.49 -66.65,-84.85l-28.78 -39.41 -28.04 -37.89 -24.26 -33.33 -17.44 -24.26c-3.15,-3.38 -7.53,-5.3 -12.14,-5.33l-112.15 0c-4.56,0 -6.08,0 -6.08,7.59l0 21.96c0.03,43.47 0.03,82.37 0.03,116.73 0,1.81 0,3.87 0,5.73 0,24.84 1.34,49.89 3.84,74.55 0.8,11.51 3.64,22.82 8.3,33.36 5.45,10.03 15.85,16.41 27.27,16.67l21.96 0 18.97 0.03c4.55,0 7.58,0 7.58,5.3 0,5.3 -4.56,7.58 -14.41,7.58l-112.14 0 -32.59 0 -53.04 0c-9.85,0 -14.4,0 -14.4,-7.58 0,-7.58 0,-5.3 7.58,-5.3l13.63 0 13.64 0c8.96,-1.61 16.3,-8.05 18.99,-16.7 3.63,-10.8 6.21,-22.05 7.56,-33.36 2.48,-25.03 3.78,-50.54 3.78,-75.8 0,-1.5 0,-3.07 0,-4.53 2.03,-34.83 3.04,-74.21 3.04,-118.16zm75.77 -378.85l0 297.03c0,0 0,0.05 0,0.08 0,4.32 2.32,8.33 6.08,10.48 11.85,5.85 24.74,9.45 37.89,10.63 17.98,2.48 36.31,3.78 54.56,3.78 0.96,0 2.03,0 2.98,0 5.81,0.48 11.66,0.75 17.47,0.75 5.81,0 11.66,-0.27 17.44,-0.72 12.01,-2.32 23.4,-7.25 33.31,-14.44 17.66,-13.45 31.3,-31.61 39.4,-52.29 10.54,-25.86 16.01,-53.58 16.01,-81.56 0,-2.09 -0.02,-4.24 -0.08,-6.3 0.23,-3.81 0.34,-7.71 0.34,-11.51 0,-44.16 -14.83,-87.09 -42.01,-121.86 -27.49,-31.93 -67.53,-50.32 -109.69,-50.32 -3.09,0 -6.21,0.12 -9.28,0.29l-37.11 0 -23.49 0c-5.12,0.89 -8.85,5.33 -8.85,10.49 0,2.23 0.72,4.4 2,6.21l3.04 -0.74z"/>
     <path class="fil2" d="M15194.27 4493.62l206.12 -564.49c3.38,-9.87 7.47,-19.53 12.11,-28.84 0,-4.55 5.3,-6.07 8.33,-6.07 3.69,0.31 6.93,2.66 8.33,6.1 4.61,8.51 8.7,17.42 12.11,26.49l16.67 43.19 31.82 83.34 41.67 108.36 44.7 116.7 42.44 109.86 34.11 86.37c6.47,17.04 14.38,33.53 23.51,49.25 6.1,10.71 13.23,20.91 21.19,30.33 5.09,6.08 11.25,11.21 18.19,15.13l15.92 6.07c6.33,2.35 12.97,3.9 19.67,4.56l16.7 0.06c6.08,0 9.11,0 9.11,5.3 0,5.3 0,5.3 -5.31,6.07l-12.88 0 -96.25 0 -46.97 0 -19.7 0c-4.55,0 -7.58,0 -7.58,-5.3 0,-5.3 0,-5.3 6.08,-6.07 3.43,-1.44 6.15,-4.16 7.55,-7.63 1.15,-2.63 1.72,-5.47 1.72,-8.33 0,-2.86 -0.57,-5.7 -1.72,-8.33l-84.85 -227.33c-1.23,-3.17 -4.32,-5.3 -7.76,-5.3 -0.21,0 -0.37,0 -0.57,0.03l-195.48 0c-0.05,-0.03 -0.11,-0.03 -0.14,-0.03 -4.43,0 -8.25,3.21 -8.99,7.59l-54.56 160.63c-7.56,19.32 -11.91,39.83 -12.83,60.59 -0.03,0.32 -0.03,0.64 -0.03,0.91 0,7.91 4.38,15.16 11.4,18.82 7.01,3.95 14.97,6.04 23.05,6.04 0.14,0 0.26,0 0.4,0l9.11 0.02c6.07,0 9.1,0 9.1,5.31 0,5.3 -4.56,7.58 -13.63,7.58l-173.55 0c-11.37,0 -17.44,0 -17.44,-7.58 0,-7.59 0,-5.31 8.33,-5.31l12.91 0 13.64 0c19.24,-1.92 36.68,-12.17 47.71,-28.06 11.05,-17.5 20.01,-36.4 26.52,-56.08l0.02 0.03zm127.3 -200.78l173.52 0c0,0 4.55,0 0,-6.08l-82.59 -245.48c-4.56,-13.63 -9.1,-13.63 -13.63,0l-80.34 245.51c-1.52,3.78 0,6.04 3.04,6.04z"/>
     <path class="fil2" d="M15942.12 4170.1l0 159.88c0,43.44 0,82.34 0,116.67 -0.03,1.78 -0.03,3.76 -0.03,5.56 0,24.94 1.26,49.97 3.79,74.74 0.88,11.48 3.73,22.79 8.38,33.33 5.45,10.03 15.85,16.41 27.27,16.67l21.96 0 18.97 0.03c4.55,0 7.58,0 7.58,5.3 0,5.3 -4.56,7.59 -14.41,7.59l-200.8 0c-9.85,0 -14.41,0 -14.41,-7.59 0,-7.58 0,-5.3 7.58,-5.3l13.64 0 13.63 0c8.96,-1.6 16.3,-8.05 18.99,-16.7 3.63,-10.8 6.22,-22.05 7.56,-33.36 2.48,-25.03 3.78,-50.54 3.78,-75.8 0,-1.49 0,-3.07 0,-4.53 0,-34.31 0,-73.2 0,-116.65l0 -303.08c0,-13.63 0,-24.25 0,-32.58 0,-8.33 0,-15.93 0,-23.48 0,-29.56 -12.11,-46.97 -31.08,-50.78l-15.15 0 -12.89 0c-4.55,0 -7.58,0 -7.58,-5.3 0,-5.3 4.56,-7.59 14.41,-7.59l181.11 0.03c9.85,0 14.4,0 14.4,7.59 0,7.58 0,5.3 -7.58,5.3l-9.85 -0.03 -15.93 0c-10.33,1.17 -20.16,6.73 -25.02,15.9 -5.76,10.83 -8.17,23.31 -8.31,35.62 -0.08,7.56 0,15.15 0,23.48 0,8.33 0,18.93 0,32.59l0 142.48 0 0zm75.78 -427.37l9.85 16.67 12.89 23.48c0,4.56 0,6.81 0,8.33 -0.86,0.35 -1.75,0.52 -2.67,0.52 -0.91,0 -1.81,-0.17 -2.66,-0.54l-8.34 0.05c-3.12,-0.45 -6.27,-0.69 -9.44,-0.69 -3.18,0 -6.33,0.24 -9.48,0.64l-35.62 6.07 -38.64 9.85 -35.62 11.37 -28.04 10.59 -13.63 4.56c0,0 -4.56,0 -4.56,-5.3 0,-5.3 0,-4.56 6.08,-7.59l31.81 -21.21 39.41 -25 34.85 -21.22 17.44 -10.6 16.67 -9.85 8.33 0c0,0 9.85,4.59 13.63,9.88l-2.26 0z"/>
     <path class="fil2" d="M16224.75 4329.95l0 -303.08c0,-13.63 0,-24.25 0,-32.58 0,-8.33 0,-15.93 0,-23.48 -0.32,-12.44 -3.44,-24.6 -9.08,-35.63 -7.36,-9.56 -18.36,-15.61 -30.33,-16.7l-15.15 0 -15.93 0.06c-4.55,0 -7.58,0 -7.58,-5.3 0,-5.31 4.55,-7.59 14.4,-7.59l103.07 0 41.67 0 57.59 0c2.49,-0.08 5.07,-0.14 7.59,-0.14 28.44,0 56.75,5.21 83.33,15.29 20.94,8.17 40.03,20.57 56.04,36.34 12.72,12.52 22.34,27.84 28.07,44.7 4.53,12.92 7.07,26.5 7.55,40.16 0.03,0.43 0.03,0.85 0.03,1.28 0,16.79 -2.55,33.48 -7.58,49.46 -4.78,14.92 -11.43,29.22 -19.74,42.48 -8.11,13.05 -17.21,25.48 -27.27,37.11 -9.84,11.37 -20.44,22.74 -31.07,33.33 18.47,6.19 36.34,14.38 53.07,24.26 18.73,10.88 35.88,24.46 50.77,40.15 15.55,16.49 28.41,35.46 37.86,56.08 10,21.74 15.18,45.42 15.18,69.33 0,0.85 -0.03,1.81 -0.03,2.66 0.03,24.69 -4.9,49.18 -14.38,71.97 -9.87,23.94 -24.62,45.62 -43.19,63.66 -21.79,20.28 -47.65,35.8 -75.77,45.45 -30.85,11.57 -63.55,17.47 -96.48,17.47 -1.69,0 -3.44,-0.03 -5.07,-0.03l-26.52 0.03 -39.41 0 -36.37 0 -108.33 0c-9.85,0 -14.41,0 -14.41,-7.59 0,-7.58 0,-5.3 7.58,-5.3l13.64 0 13.63 0c8.94,-1.6 16.27,-8.05 18.96,-16.7 3.67,-10.8 6.25,-22.05 7.59,-33.36 2.49,-25.03 3.78,-50.54 3.78,-75.8 0,-1.49 0,-3.07 0,-4.53 1.52,-38.35 2.27,-79.5 2.27,-123.46zm75.77 -383.4l0 243.99c-0.03,0.23 -0.03,0.46 -0.03,0.72 0,3.98 2.41,7.58 6.11,9.1l17.44 0 37.89 0 31.79 0.03c3.52,0.4 7.07,0.63 10.62,0.63 3.55,0 7.1,-0.23 10.59,-0.69 5.39,-1.78 10.49,-4.32 15.18,-7.53 5.3,-3.66 10.17,-8.02 14.38,-12.88 10.17,-11.86 18.15,-25.49 23.48,-40.16 6.01,-16.14 9.11,-33.27 9.11,-50.51 0,-0.34 0,-0.69 0,-1.03 0,-18.85 -2.35,-37.73 -6.82,-56.04 -4.09,-18.02 -11.31,-35.2 -21.24,-50.78 -9.68,-14.63 -22.68,-26.86 -37.86,-35.62 -15.07,-7.34 -31.62,-11.15 -48.37,-11.15 -3.58,0 -7.19,0.21 -10.75,0.51l-19.7 0.06 -23.48 0c-7.58,0 -11.37,6.04 -11.37,11.34l3.04 0zm0 287.95l0 171.26c0,19.67 0,36.6 0,50.74 0,14.41 0,23.48 0,26.52 0,3.04 0,20.45 0,28.04 0.35,6.41 1.63,12.83 3.81,18.9 1.92,4.78 4.76,9.16 8.31,12.89 4.95,4.38 10.59,7.98 16.67,10.62 6.5,3.33 13.37,5.87 20.47,7.56l22.74 3.78 21.21 0 15.9 0.03c13.58,-0.32 27.09,-2.38 40.15,-6.08 15.03,-4.13 29.22,-11.08 41.67,-20.47 13.67,-10.48 24.84,-23.97 32.59,-39.38 8.56,-18.04 13,-37.78 13,-57.74 0,-1.71 -0.06,-3.46 -0.08,-5.15 -0.03,-15 -1.35,-29.99 -3.82,-44.7 -2.91,-16.89 -7.79,-33.51 -14.4,-49.28 -6.88,-16.65 -15.81,-32.48 -26.49,-46.97 -12.06,-15.89 -26.72,-29.75 -43.25,-40.9 -12.78,-8.67 -26.84,-15.34 -41.64,-19.72 -11.21,-2.72 -22.68,-4.78 -34.11,-6.04l-14.41 0 -56.81 0.03c0,0 -4.56,2.26 -4.56,9.85l3.04 -3.79z"/>
     <path class="fil2" d="M16730.9 4493.62l206.11 -564.49c3.38,-9.87 7.47,-19.53 12.11,-28.84 0,-4.55 5.31,-6.07 8.33,-6.07 3.69,0.31 6.94,2.66 8.33,6.1 4.64,8.51 8.73,17.42 12.15,26.49l16.67 43.19 31.81 83.34 41.67 108.36 44.7 116.7 42.44 109.86 34.11 86.37c6.48,17.04 14.38,33.53 23.51,49.25 6.1,10.71 13.23,20.91 21.19,30.33 5.1,6.08 11.26,11.21 18.19,15.13l15.92 6.07c6.33,2.35 12.97,3.9 19.67,4.56l16.67 0.06c6.08,0 9.11,0 9.11,5.3 0,5.3 0,5.3 -5.3,6.07l-12.89 0 -96.25 0 -46.96 0 -19.7 0c-4.56,0 -7.59,0 -7.59,-5.3 0,-5.3 0,-5.3 6.08,-6.07 3.47,-1.44 6.19,-4.16 7.58,-7.63 1.15,-2.63 1.72,-5.47 1.72,-8.33 0,-2.86 -0.57,-5.7 -1.72,-8.33l-84.85 -227.33c-1.26,-3.17 -4.35,-5.3 -7.79,-5.3 -0.19,0 -0.37,0 -0.57,0.03l-195.48 0c-0.02,-0.03 -0.08,-0.03 -0.11,-0.03 -4.43,0 -8.24,3.21 -8.99,7.59l-54.56 160.63c-7.58,19.32 -11.94,39.83 -12.86,60.59 -0.03,0.32 -0.03,0.64 -0.03,0.91 0,7.91 4.38,15.16 11.4,18.82 7.05,3.95 15,6.04 23.08,6.04 0.14,0 0.26,0 0.4,0l9.08 0.02c6.07,0 9.1,0 9.1,5.31 0,5.3 -4.55,7.58 -13.63,7.58l-173.52 0c-11.36,0 -17.44,0 -17.44,-7.58 0,-7.59 0,-5.31 8.33,-5.31l12.89 0 13.63 0c19.27,-1.92 36.71,-12.17 47.74,-28.06 11.02,-17.5 19.99,-36.4 26.49,-56.08l0.03 0.03zm127.29 -200.78l173.52 0c0,0 4.56,0 0,-6.08l-86.37 -245.51c-4.56,-13.63 -9.1,-13.63 -13.63,0l-80.34 245.51c0,3.81 0.78,6.08 4.56,6.08l2.26 0z"/>
     <path class="fil2" d="M16346.12 3238.85l0 -303.07c0,-13.64 0,-24.49 0,-32.59 0,-8.33 0,-15.92 0,-23.48 -0.32,-12.4 -3.44,-24.57 -9.08,-35.6 -7.33,-9.56 -18.33,-15.61 -30.3,-16.7l-15.16 0 -15.92 0.03c-5.07,0 -7.59,-1.78 -7.59,-5.33 0,-4.56 4.56,-7.58 14.41,-7.58l65.15 0.02 37.12 0 208.39 0c13.15,-0.66 26.41,-2.2 39.38,-4.58l6.08 0 6.07 0c0,0 0,0 0,8.33 0.32,2.4 0.46,4.81 0.46,7.21 0,2.41 -0.14,4.81 -0.46,7.19 -2.32,9.45 -3.89,19.13 -4.55,28.81 -0.66,9.68 0,6.07 0,12.11 0,6.04 0,11.37 0,17.45 0,6.07 0,12.11 0,18.19 0.14,2.03 0.23,4.03 0.23,6.07 0,2.03 -0.08,4.04 -0.23,6.08l0 6.81c-0.57,0.26 -1.23,0.4 -1.89,0.4 -0.67,0 -1.29,-0.14 -1.9,-0.4 -4.55,0 -7.58,-3.78 -7.58,-12.11 0,-8.33 0,-7.59 0,-14.41 -0.51,-6.24 -2.06,-12.43 -4.56,-18.19 -3.46,-7.9 -9.31,-14.52 -16.67,-18.96 -15.23,-7.13 -31.7,-11.29 -48.48,-12.14l-24.26 0 -100 0.02c0,0 -5.3,0 -5.3,9.11l0 250.81c0,6.07 0,9.1 5.3,9.1l114.41 -0.05 30.3 0 26.52 0c6.44,-0.97 12.35,-4.22 16.67,-9.08 6.81,-7.58 11.37,-12.11 13.64,-12.11 2.26,0 4.55,0 4.55,7.58 0.29,2.72 0.43,5.53 0.43,8.3 0,2.78 -0.14,5.58 -0.4,8.33 -2.26,11.48 -3.84,23.2 -4.53,34.88 0,4.56 0,9.85 0,15.93 0,6.07 0,11.37 0,17.44l0 15.15c-0.03,4.53 -0.03,7.79 -0.03,9.82 0.12,1.87 0.21,3.79 0.21,5.68 0,1.89 -0.08,3.81 -0.21,5.66 0,3.79 0,6.08 -5.3,6.08 -5.3,0 -6.07,0 -6.07,-8.33 0,-8.33 0,-9.85 0,-14.41 0.26,-2.61 0.4,-5.26 0.4,-7.93 0,-2.66 -0.14,-5.33 -0.4,-7.95 -2.35,-7.48 -6.54,-14.27 -12.15,-19.7 -10.08,-7.88 -22.54,-12.14 -35.33,-12.14 -0.08,0 -0.17,0 -0.26,0l-28.79 0 -40.15 0 -61.4 0c-0.26,-0.03 -0.51,-0.06 -0.8,-0.06 -2.91,0 -5.3,2.38 -5.3,5.3 0,0.29 0.03,0.54 0.06,0.83l0 234.89c0.31,12.75 2.11,25.54 5.3,37.91 2.26,9.08 7.61,17.16 15.18,22.71 9.33,5.93 19.98,9.56 31.04,10.57 8.93,0.54 17.92,0.89 26.89,0.89 8.96,0 17.96,-0.35 26.86,-0.89l43.97 0c15,-0.37 29.9,-3.18 43.99,-8.3 11.26,-4.09 20.84,-11.83 27.27,-21.97 7.18,-13.42 11.82,-28.09 13.63,-43.21 0,-9.08 2.77,-13.61 8.33,-13.61 0.26,-0.05 0.51,-0.08 0.77,-0.08 2.52,0 4.56,2.03 4.56,4.55 0,0.03 0,0.06 0,0.06 0,0 0,6.08 0,9.1 0,3.04 0,6.82 0,14.41l0 25.77 0 28.04c0.11,3.44 0.23,7.05 0.23,10.57 0,3.52 -0.11,7.13 -0.26,10.62 -1.23,4.7 -3.04,9.28 -5.3,13.61 -1.95,3.15 -4.87,5.52 -8.33,6.81 -2.24,0.37 -4.53,0.57 -6.81,0.57 -2.3,0 -4.56,-0.21 -6.81,-0.57l-141.71 0.03 -64.41 0 -43.95 0 -116.68 0c-9.84,0 -14.4,0 -14.4,-7.59 0,-7.58 0,-5.3 7.58,-5.3l13.64 0.03 13.63 0c9.02,-1.47 16.41,-7.96 18.96,-16.73 3.66,-10.77 6.22,-21.99 7.56,-33.3 2.55,-25 3.84,-50.38 3.84,-75.57 0,-1.58 0,-3.12 0,-4.7 0.48,-43.47 0.72,-87.17 0.72,-131.14z"/>
    </g>
    <g>
     <path class="fil3" d="M2616.81 5854.94l0 -1181.09c0,-427.33 -346.43,-773.78 -773.76,-773.78l-1262.52 0 551.5 529.47 588.84 0c404.86,0 733.05,328.19 733.05,733.08l0 535.91 162.9 156.41z"/>
     <path class="fil3" d="M2779.75 1130.69l0 1181.08c0,427.33 346.43,773.79 773.79,773.79l1262.52 0 -551.53 -529.48 -588.85 0c-404.82,0 -733.07,-328.19 -733.07,-733.08l0 -535.9 -162.87 -156.41z"/>
     <path class="fil4" d="M2616.81 2963.38l0 -1181.06 -570.11 547.34 0 511.52c0,427.36 -346.47,773.79 -773.84,773.79l-565.08 0 -127.26 122.2 1262.52 0c427.34,0 773.76,-346.44 773.76,-773.79z"/>
     <path class="fil5" d="M2779.75 4022.26l0 1181.05 570.15 -547.34 0 -511.55c0,-427.33 346.46,-773.75 773.79,-773.75l565.08 0 127.29 -122.2 -1262.52 0c-427.37,0 -773.79,346.43 -773.79,773.79z"/>
    </g>
   </g>
  </g>
 </g>
</svg>
