<svg width="142" height="130" viewBox="0 0 142 130" fill="none" xmlns="http://www.w3.org/2000/svg">
<g filter="url(#filter0_d_23_275)">
<path d="M4 108.333V93.3019C4 90.2325 4.79097 87.3887 6.37292 84.7707C7.95486 82.1526 10.1417 80.1665 12.9333 78.8123C14.2361 78.1804 15.4924 77.5936 16.7021 77.0519C18.0049 76.5103 19.3542 76.0137 20.75 75.5623V108.333H4ZM26.3333 70.4165C21.6806 70.4165 17.7257 68.8366 14.4688 65.6769C11.2118 62.5172 9.58333 58.6804 9.58333 54.1665C9.58333 49.6526 11.2118 45.8158 14.4688 42.6561C17.7257 39.4964 21.6806 37.9165 26.3333 37.9165C30.9861 37.9165 34.941 39.4964 38.1979 42.6561C41.4549 45.8158 43.0833 49.6526 43.0833 54.1665C43.0833 58.6804 41.4549 62.5172 38.1979 65.6769C34.941 68.8366 30.9861 70.4165 26.3333 70.4165ZM26.3333 59.5832C27.9153 59.5832 29.2181 59.0866 30.2417 58.0936C31.3583 57.0103 31.9167 55.7012 31.9167 54.1665C31.9167 52.6318 31.3583 51.3679 30.2417 50.3748C29.2181 49.2915 27.9153 48.7498 26.3333 48.7498C24.7514 48.7498 23.4021 49.2915 22.2854 50.3748C21.2618 51.3679 20.75 52.6318 20.75 54.1665C20.75 55.7012 21.2618 57.0103 22.2854 58.0936C23.4021 59.0866 24.7514 59.5832 26.3333 59.5832ZM26.3333 108.333V93.1665C26.3333 90.0971 27.1243 87.2984 28.7063 84.7707C30.3813 82.1526 32.5681 80.1665 35.2667 78.8123C41.0361 76.0137 46.8986 73.9373 52.8542 72.5832C58.8097 71.1387 64.8583 70.4165 71 70.4165C77.1417 70.4165 83.1903 71.1387 89.1458 72.5832C95.1014 73.9373 100.964 76.0137 106.733 78.8123C109.432 80.1665 111.572 82.1526 113.154 84.7707C114.829 87.2984 115.667 90.0971 115.667 93.1665V108.333H26.3333ZM37.5 97.4998H104.5V93.1665C104.5 92.1734 104.221 91.2707 103.663 90.4582C103.197 89.6457 102.546 89.0137 101.708 88.5623C96.6833 86.1248 91.6118 84.3193 86.4938 83.1457C81.3757 81.8818 76.2111 81.2498 71 81.2498C65.7889 81.2498 60.6243 81.8818 55.5063 83.1457C50.3882 84.3193 45.3167 86.1248 40.2917 88.5623C39.4542 89.0137 38.7563 89.6457 38.1979 90.4582C37.7326 91.2707 37.5 92.1734 37.5 93.1665V97.4998ZM71 64.9998C64.8583 64.9998 59.6007 62.8783 55.2271 58.6353C50.8535 54.3922 48.6667 49.2915 48.6667 43.3332C48.6667 37.3748 50.8535 32.2741 55.2271 28.0311C59.6007 23.788 64.8583 21.6665 71 21.6665C77.1417 21.6665 82.3993 23.788 86.7729 28.0311C91.1465 32.2741 93.3333 37.3748 93.3333 43.3332C93.3333 49.2915 91.1465 54.3922 86.7729 58.6353C82.3993 62.8783 77.1417 64.9998 71 64.9998ZM71 54.1665C74.0708 54.1665 76.6764 53.1283 78.8167 51.0519C81.05 48.8853 82.1667 46.3123 82.1667 43.3332C82.1667 40.354 81.05 37.8262 78.8167 35.7498C76.6764 33.5832 74.0708 32.4998 71 32.4998C67.9292 32.4998 65.2771 33.5832 63.0438 35.7498C60.9035 37.8262 59.8333 40.354 59.8333 43.3332C59.8333 46.3123 60.9035 48.8853 63.0438 51.0519C65.2771 53.1283 67.9292 54.1665 71 54.1665ZM115.667 70.4165C111.014 70.4165 107.059 68.8366 103.802 65.6769C100.545 62.5172 98.9167 58.6804 98.9167 54.1665C98.9167 49.6526 100.545 45.8158 103.802 42.6561C107.059 39.4964 111.014 37.9165 115.667 37.9165C120.319 37.9165 124.274 39.4964 127.531 42.6561C130.788 45.8158 132.417 49.6526 132.417 54.1665C132.417 58.6804 130.788 62.5172 127.531 65.6769C124.274 68.8366 120.319 70.4165 115.667 70.4165ZM115.667 59.5832C117.249 59.5832 118.551 59.0866 119.575 58.0936C120.692 57.0103 121.25 55.7012 121.25 54.1665C121.25 52.6318 120.692 51.3679 119.575 50.3748C118.551 49.2915 117.249 48.7498 115.667 48.7498C114.085 48.7498 112.735 49.2915 111.619 50.3748C110.595 51.3679 110.083 52.6318 110.083 54.1665C110.083 55.7012 110.595 57.0103 111.619 58.0936C112.735 59.0866 114.085 59.5832 115.667 59.5832ZM121.25 108.333V75.5623C122.646 76.0137 123.949 76.5103 125.158 77.0519C126.461 77.5936 127.764 78.1804 129.067 78.8123C131.858 80.1665 134.045 82.1526 135.627 84.7707C137.209 87.3887 138 90.2325 138 93.3019V108.333H121.25Z" fill="#FEF7FF"/>
</g>
<defs>
<filter id="filter0_d_23_275" x="0" y="0" width="142" height="138" filterUnits="userSpaceOnUse" color-interpolation-filters="sRGB">
<feFlood flood-opacity="0" result="BackgroundImageFix"/>
<feColorMatrix in="SourceAlpha" type="matrix" values="0 0 0 0 0 0 0 0 0 0 0 0 0 0 0 0 0 0 127 0" result="hardAlpha"/>
<feOffset dy="4"/>
<feGaussianBlur stdDeviation="2"/>
<feComposite in2="hardAlpha" operator="out"/>
<feColorMatrix type="matrix" values="0 0 0 0 0 0 0 0 0 0 0 0 0 0 0 0 0 0 0.25 0"/>
<feBlend mode="normal" in2="BackgroundImageFix" result="effect1_dropShadow_23_275"/>
<feBlend mode="normal" in="SourceGraphic" in2="effect1_dropShadow_23_275" result="shape"/>
</filter>
</defs>
</svg>
