<svg width="134" height="130" viewBox="0 0 134 130" fill="none" xmlns="http://www.w3.org/2000/svg">
<path d="M123.992 27.2413C118.988 19.1501 110.091 13.7559 100.083 13.7559H33.361C23.3526 13.7559 14.4566 19.1501 9.45223 27.2413C3.33613 38.0298 0 49.8971 0 62.3038C0 91.9717 12.2325 116.246 27.8008 116.246C36.141 116.246 42.8133 108.694 47.8173 93.0505C48.3732 90.8928 50.5973 89.2747 53.3775 89.2747H80.6225C82.8465 89.2747 85.0706 90.8928 86.1827 93.0505C91.1867 108.694 97.859 116.246 106.199 116.246C121.768 116.246 134 91.9717 134 62.3038C133.444 49.8971 130.108 38.0298 123.992 27.2413ZM105.643 105.457C103.975 105.457 100.083 101.142 96.1908 89.814C93.9667 82.8016 87.2945 78.4862 80.0663 78.4862H53.3775C46.1494 78.4862 39.4771 83.3409 37.253 89.814C33.361 101.142 29.4687 105.457 27.8008 105.457C22.2406 105.457 11.1204 88.7351 11.1204 62.3038C11.1204 52.0548 13.9004 41.8059 18.9047 32.6358C22.2409 27.7811 27.8011 24.5446 33.3613 24.5446H100.083C105.644 24.5446 111.204 27.7811 114.54 32.6358C119.544 41.8059 122.324 52.0548 122.324 62.3038C122.324 88.7351 111.203 105.457 105.643 105.457Z" fill="white"/>
<path d="M50.2502 48.7501H44.667V43.3336C44.667 40.0836 42.4337 37.917 39.0837 37.917C35.7337 37.917 33.5005 40.0836 33.5005 43.3336V48.7501H27.9172C24.5672 48.7501 22.334 50.9167 22.334 54.1667C22.334 57.4167 24.5672 59.5833 27.9172 59.5833H33.5002V65.0001C33.5002 68.2501 35.7335 70.4167 39.0835 70.4167C42.4335 70.4167 44.6667 68.2501 44.6667 65.0001V59.5835H50.2502C53.6002 59.5835 55.8335 57.4169 55.8335 54.167C55.8335 50.9167 53.6002 48.7501 50.2502 48.7501Z" fill="white"/>
<path d="M103.292 54.1665C107.917 54.1665 111.667 50.5288 111.667 46.0415C111.667 41.5542 107.917 37.9165 103.292 37.9165C98.6664 37.9165 94.9167 41.5542 94.9167 46.0415C94.9167 50.5288 98.6664 54.1665 103.292 54.1665Z" fill="white"/>
<path d="M86.5417 70.4166C91.1671 70.4166 94.9167 66.7789 94.9167 62.2915C94.9167 57.8042 91.1671 54.1665 86.5417 54.1665C81.9164 54.1665 78.1667 57.8042 78.1667 62.2915C78.1667 66.7789 81.9164 70.4166 86.5417 70.4166Z" fill="white"/>
</svg>
