<svg width="53" height="62" viewBox="0 0 53 62" fill="none" xmlns="http://www.w3.org/2000/svg">
<path d="M38.3333 8.33341H44.25C45.8192 8.33341 47.3241 8.93044 48.4337 9.99314C49.5433 11.0558 50.1666 12.4972 50.1666 14.0001V53.6667C50.1666 55.1696 49.5433 56.611 48.4337 57.6737C47.3241 58.7364 45.8192 59.3334 44.25 59.3334H8.74998C7.18078 59.3334 5.67585 58.7364 4.56626 57.6737C3.45667 56.611 2.83331 55.1696 2.83331 53.6667V14.0001C2.83331 12.4972 3.45667 11.0558 4.56626 9.99314C5.67585 8.93044 7.18078 8.33341 8.74998 8.33341H14.6666M17.625 2.66675H35.375C37.0088 2.66675 38.3333 3.93527 38.3333 5.50008V11.1667C38.3333 12.7316 37.0088 14.0001 35.375 14.0001H17.625C15.9911 14.0001 14.6666 12.7316 14.6666 11.1667V5.50008C14.6666 3.93527 15.9911 2.66675 17.625 2.66675Z" stroke="#1E1E1E" stroke-width="4" stroke-linecap="round" stroke-linejoin="round"/>
</svg>
